<svg xmlns="http://www.w3.org/2000/svg" viewBox="0 0 64 64" x="0px" y="0px"><title>fashion-clean-laundry-wash-clothing</title><g data-name="Layer 31"><path d="M62.707,23.293l-10-10a1,1,0,0,0-.528-.276l-11-2A1,1,0,0,0,40,12a5.935,5.935,0,0,1-.085.948L33,11.22V10.9A5,5,0,1,0,27,6h2a3,3,0,1,1,3,3,1,1,0,0,0-1,1v1.219l-6.915,1.729A5.935,5.935,0,0,1,24,12a1,1,0,0,0-.359-.768.977.977,0,0,0-.82-.215l-11,2a1,1,0,0,0-.528.276l-10,10a1,1,0,0,0,0,1.414l8,8a1,1,0,0,0,1.414,0L13,30.414V37H6a4.985,4.985,0,0,0-2.969,9,4.954,4.954,0,0,0,0,8A4.985,4.985,0,0,0,6,63H42a1,1,0,0,0,.707-.293l8-8A.991.991,0,0,0,50.991,54H51V30.414l2.293,2.293a1,1,0,0,0,1.414,0l8-8A1,1,0,0,0,62.707,23.293ZM32,13.03l7.272,1.818A8.159,8.159,0,0,1,32,18.875a8.159,8.159,0,0,1-7.272-4.027ZM3,42a3,3,0,0,1,3-3H28a3,3,0,0,1,0,6H6A3,3,0,0,1,3,42Zm0,8a3,3,0,0,1,3-3H28a3,3,0,0,1,0,6H6A3,3,0,0,1,3,50ZM26,61H6a3,3,0,0,1,0-6H28a3,3,0,0,1,0,6Zm17-1.414V55h4.586Zm11-29-6.293-6.293-1.414,1.414L49,28.414V53H42a1,1,0,0,0-1,1v7H31.974a4.932,4.932,0,0,0-1-7,4.954,4.954,0,0,0,0-8A4.985,4.985,0,0,0,28,37H15V28.414l2.707-2.707-1.414-1.414L10,30.586,3.414,24l9.072-9.072,9.6-1.745c.654,4.336,4.85,7.692,9.912,7.692s9.258-3.356,9.912-7.692l9.6,1.745L60.586,24Z"></path><rect x="5" y="41" width="24" height="2"></rect><rect x="5" y="49" width="23" height="2"></rect><rect x="5" y="57" width="23" height="2"></rect></g></svg>