<svg xmlns="http://www.w3.org/2000/svg" viewBox="0 0 52.18 56.03"><defs><style>.cls-1{fill:#87ceee;}</style></defs><g id="레이어_2" data-name="레이어 2"><g id="레이어_1-2" data-name="레이어 1"><path id="id-D6z1nYkh9" class="cls-1" d="M11,15.1h0c.4,0,.5.2.5.6h0a.76.76,0,0,1-.2.4h0a9.54,9.54,0,0,1-7,3h0A3.57,3.57,0,0,1,2.18,18a3.81,3.81,0,0,1-1.1-3.1c0-1.3.8-2.8,2.5-4.5a27.65,27.65,0,0,1,6.8-4.7,57.22,57.22,0,0,1,11-4A49.3,49.3,0,0,1,33.18,0a40.54,40.54,0,0,1,8.6.8A18.59,18.59,0,0,1,47,2.9a12.1,12.1,0,0,1,3.1,2.8h0a8.32,8.32,0,0,1,2.1,5.3,11,11,0,0,1-1.7,5.5A21.71,21.71,0,0,1,46,21.6a36,36,0,0,1-6.3,4.1h0a54.36,54.36,0,0,1-14.3,5.2h0c.9.9,2.7,3.1,5.5,6.7a116.21,116.21,0,0,0,7.7,9Q42,50.2,44,50.2h0l1.2-.4c.3,0,.4.1.4.3a5.37,5.37,0,0,1-1.3,1.8A15,15,0,0,1,42,54.1c-.7.5-2.73,1.93-3.93,1.93s-1.17-1.63-2.57-2.73a33,33,0,0,1-4.7-4.6c-1.7-2-3.2-3.8-4.5-5.6s-2.9-3.8-4.6-6.2-2.9-4-3.6-4.8h0c-.2.4-.9,1.3-1.8,2.9a34.58,34.58,0,0,1-2.2,3.4c-.5.7-1.1,1.8-2,3.2s-1.6,2.5-2,3.3h0c-3.54,5.19,2.54,5.32,1.94,6.42s-6.14.28-7.24.28H2.38c-2.33.06-2.67-.2-2.2-1.9h0a12.46,12.46,0,0,1,1.2-4c.8-1.7,5.1-8.2,12.8-19.5s12-17.3,12.8-18a4.7,4.7,0,0,1,1.8-1.3h0a1.55,1.55,0,0,1,.6-.3h0l.6.1.6-.1a.86.86,0,0,1,.6.3c.2.2.3.3.4.3h0c1,.8,1.5,1.4,1.5,1.9a2.82,2.82,0,0,1-.4,1.5c-.3.5-.9,1.5-2.1,3.2s-2.6,3.8-4.5,6.4-3.2,4.5-4,5.7h0a22.38,22.38,0,0,0,7.1-1.8,40.94,40.94,0,0,0,7.8-4,31.86,31.86,0,0,0,6.2-5.1c1.7-1.8,2.6-3.4,2.6-4.7h0a2.73,2.73,0,0,0-1.1-2,7.37,7.37,0,0,0-2.8-1.4h0a25.9,25.9,0,0,0-7.6-1,42.94,42.94,0,0,0-10.8,1.8A45.24,45.24,0,0,0,14,11.2a24,24,0,0,0-4.3,2.9c-.9.8-1.3,1.3-1.3,1.6h0c0,.2.2.3.7.3a2,2,0,0,0,1.3-.4C10.68,15.2,10.88,15.1,11,15.1Z"/></g></g></svg>