<svg xmlns="http://www.w3.org/2000/svg" viewBox="0 0 207.74 117.94"><defs><style>.cls-1{fill:#e9e9e9;}.cls-2{fill:#1b1c1b;}.cls-3{fill:#dae6f5;}.cls-4,.cls-9{fill:#98b8e1;}.cls-5{fill:#b7d2ee;}.cls-6{fill:#2c6db6;}.cls-7{fill:#2c6cb5;}.cls-8{fill:#183d96;}.cls-8,.cls-9{stroke:#231815;stroke-miterlimit:10;stroke-width:0.1px;}.cls-10{fill:#c4c4c4;}.cls-11{fill:#fff;}.cls-12{fill:#555252;}.cls-13{fill:#a7a2a0;}.cls-14{fill:#231815;}</style></defs><g id="레이어_2" data-name="레이어 2"><g id="레이어_1-2" data-name="레이어 1"><rect class="cls-1" width="207.74" height="117.94" rx="6.71"/><g id="레이어_1-2-2" data-name="레이어 1-2"><path id="id-D6z1nYkh9" class="cls-2" d="M144.09,13.32h0V16.2a2.46,2.46,0,0,0,1.49-.32,1.38,1.38,0,0,0,.38-1.09,1.44,1.44,0,0,0-.39-1.11A2.23,2.23,0,0,0,144.09,13.32Zm4.31,5.9v.16h-.48a2.52,2.52,0,0,1-1.91-.59h0a2.35,2.35,0,0,1-.58-1.22h0c-.05-.21-.1-.4-.15-.58h0a.69.69,0,0,0-.71-.59h-.48v2.82h.49v.16h-2.65v-.16h.5v-6h-.5v-.17h2.87c1.85,0,2.78.55,2.78,1.66h0a1.37,1.37,0,0,1-.47,1.07,1.74,1.74,0,0,1-1.2.41h0v.08c.73,0,1.24.49,1.52,1.48h0a4.08,4.08,0,0,0,.44,1.11.66.66,0,0,0,.53.33Zm6.63.16h-2.15v-.59a1.6,1.6,0,0,1-.67.51,2.21,2.21,0,0,1-1,.2h0c-1.33,0-2-.71-2-2.15v-3h-.51v-.16h2.16v3.31a2.24,2.24,0,0,0,.27,1.13.78.78,0,0,0,.7.33h0a1.16,1.16,0,0,0,1-.66h0v-4h-.5v-.16h2.15v5h.5Zm6.8-3.08v2.92h.5v.16h-2.82v-.16h.66V16.09a2,2,0,0,0-.24-1.13.81.81,0,0,0-.71-.33h0a1.17,1.17,0,0,0-1,.66v3.92h.5v.17h-2.82v-.17h.5V14.4h-.5v-.16h2.32v.58a1.62,1.62,0,0,1,.67-.49,2.19,2.19,0,0,1,1-.21h0c1.32,0,2,.72,2,2.18Zm3.37,3.18h0a2,2,0,0,1-1.56-.71,2.88,2.88,0,0,1-.67-2,3,3,0,0,1,.65-2A2.05,2.05,0,0,1,165.2,14h0a2,2,0,0,1,.86.19,2.32,2.32,0,0,1,.58.57h0V12.08h-.5v-.16h2.15v7.29h.5v.17h-2.15v-.55c-.2.43-.68.65-1.44.65Zm1.44-2.58h0V15.06a.89.89,0,0,0-.79-.6A1,1,0,0,0,165,15a3.48,3.48,0,0,0-.34,1.77,3.44,3.44,0,0,0,.35,1.76.83.83,0,0,0,.86.48h0a.75.75,0,0,0,.43-.18h0C166.53,18.65,166.64,18,166.64,16.9Zm12.17,2.31v.17H176v-.33h.5V14.4H176v-.16h2.15v1.34a2.26,2.26,0,0,1,.35-.9,1.25,1.25,0,0,1,.56-.46,1.78,1.78,0,0,1,.6-.12,1.5,1.5,0,0,1,.55.11.72.72,0,0,1,.39.43.84.84,0,0,1,0,.64.78.78,0,0,1-.41.46.7.7,0,0,1-.55,0,.74.74,0,0,1-.35-.28,1.09,1.09,0,0,1-.15-.33h0c-.08-.28-.17-.42-.3-.42h0c-.13,0-.28.25-.45.74a5.21,5.21,0,0,0-.25,1.57h0v2.15Zm-4.24-2.13H171.2c.07,1.31.58,2,1.53,2h0a2.54,2.54,0,0,0,.86-.18,1.43,1.43,0,0,0,.71-.5h0l.16.12a1.85,1.85,0,0,1-.83.68,3,3,0,0,1-1.18.27,4.72,4.72,0,0,1-1.06-.12,3.36,3.36,0,0,1-.91-.4,1.8,1.8,0,0,1-.7-.84,3.24,3.24,0,0,1-.25-1.35h0a2.5,2.5,0,0,1,.75-2,2.62,2.62,0,0,1,1.81-.65,2.41,2.41,0,0,1,1.78.71A3.21,3.21,0,0,1,174.57,17.08Zm-3.39-.29v.12H173a6.83,6.83,0,0,0-.22-1.8c-.15-.51-.38-.77-.7-.77s-.55.25-.69.75a6.45,6.45,0,0,0-.22,1.7Zm11.88-2.55v5h.49v.17h-2.82v-.17h.67V14.4h-.5v-.16Zm.07-1.51a1,1,0,0,1-1,1h0a1,1,0,0,1-.7-.29.94.94,0,0,1-.29-.69,1,1,0,0,1,1-1,.91.91,0,0,1,.69.29,1,1,0,0,1,.28.7Zm7.06,3.57v2.91h.66v.17H188v-.17h.5V16.09a2.11,2.11,0,0,0-.22-1.13.74.74,0,0,0-.66-.33h0a1.05,1.05,0,0,0-1,.66v3.92h.5v.17h-2.82v-.17h.5V14.4h-.5v-.16h2.16v.58a1.53,1.53,0,0,1,.66-.49,2.22,2.22,0,0,1,1-.21h0c1.33,0,2,.72,2,2.18Zm2.71,2.06h0c0,.21.14.34.41.36h1.92a1.8,1.8,0,0,1,1.38.43,1.13,1.13,0,0,1,.27,1,1.91,1.91,0,0,1-.76,1.15,2.77,2.77,0,0,1-1.79.53h0a4,4,0,0,1-2.68-.62h0a.69.69,0,0,1-.18-.57.86.86,0,0,1,.24-.54,1.11,1.11,0,0,1,.48-.28h0a1,1,0,0,1-.31-1.11,1.22,1.22,0,0,1,.24-.45,2.17,2.17,0,0,1,.62-.55h0a1.7,1.7,0,0,1-1.29-1.69h0a1.56,1.56,0,0,1,.83-1.4,3.64,3.64,0,0,1,1.88-.49h0a3.48,3.48,0,0,1,1,.15h0a1.3,1.3,0,0,1-.26-.83,1.06,1.06,0,0,1,.33-.8,1.15,1.15,0,0,1,.83-.31,1,1,0,0,1,.75.26.79.79,0,0,1,.25.58.85.85,0,0,1-.2.55.69.69,0,0,1-1,.05.71.71,0,0,1-.23-.47,1,1,0,0,1,.08-.38.61.61,0,0,0,.09-.18h0c0-.12-.1-.15-.22-.1a.7.7,0,0,0-.34.32,1.15,1.15,0,0,0-.14.55h0a1.15,1.15,0,0,0,.55,1h0a1.66,1.66,0,0,1,1,1.49,1.59,1.59,0,0,1-.79,1.44A3.54,3.54,0,0,1,194,18h0a3.18,3.18,0,0,1-.92-.11h0A1,1,0,0,0,192.9,18.36ZM195,16a2.6,2.6,0,0,0-.22-1.3.76.76,0,0,0-.67-.35.68.68,0,0,0-.64.35,2.89,2.89,0,0,0-.2,1.29,3,3,0,0,0,.21,1.32.7.7,0,0,0,.64.38.74.74,0,0,0,.66-.37A2.79,2.79,0,0,0,195,16Zm.19,4h-1.88a1.87,1.87,0,0,1-.9-.19h0a1.16,1.16,0,0,0,.41,1.24A3,3,0,0,0,196,21h0a.69.69,0,0,0,.33-.45c0-.15-.06-.27-.25-.38A1.91,1.91,0,0,0,195.16,20Z"/><path class="cls-2" d="M138.57,10.21l-4.09-1.39V8.53c.62-.38,1.11-.7,1.11-1.33a1.18,1.18,0,0,0-2.36,0,.2.2,0,0,0,.19.19.19.19,0,0,0,.19-.19h0a.81.81,0,0,1,.83-.78.82.82,0,0,1,.78.78c0,.4-.31.63-1,1a.33.33,0,0,0-.14.24v.36l-4,1.43c-.59.2-.93.53-.93,1a1.1,1.1,0,0,0,1.08,1.07v5.79h1.15v1.51h6.73v-7.3h.29a1,1,0,0,0,1.08-1A1.25,1.25,0,0,0,138.57,10.21Zm-8,7.55V17h5.3v.79ZM137.76,12h-1.49v-.13c0-.38.29-.8.64-.8H137a.77.77,0,0,1,.72.8Zm-1.86-.13v4.78h-5.3v-4.8a.69.69,0,0,1,.79-.79h4.85a1.08,1.08,0,0,0-.33.81Zm1.86,7.42h-6V18.12h4.52v-5.8h1.49Zm.65-7.29h-.29v-.14A1.14,1.14,0,0,0,137,10.69h-5.61a1,1,0,0,0-1.14,1.14V12a.77.77,0,0,1-.72-.72c0-.31.23-.53.68-.68l4.05-1.47h.07l4.12,1.47c.44.15.68.44.68.75A.66.66,0,0,1,138.41,12Z"/></g><rect class="cls-3" x="49.47" y="62.92" width="79.7" height="38.43"/><rect class="cls-4" x="72.78" y="62.92" width="56.39" height="38.43"/><rect class="cls-5" x="72.78" y="66.99" width="52.92" height="16.22"/><path class="cls-6" d="M57.79,94.94H56.35V89.38h0l-1.59,1V89.1L56.44,88h1.35Z"/><path class="cls-6" d="M60.6,94.61a2.6,2.6,0,0,1-1-1.21,5.78,5.78,0,0,1,0-3.85,2.51,2.51,0,0,1,2.45-1.63,2.5,2.5,0,0,1,2.44,1.64,5.59,5.59,0,0,1,0,3.84A2.45,2.45,0,0,1,62.09,95,2.59,2.59,0,0,1,60.6,94.61Zm2.19-1a1.66,1.66,0,0,0,.45-.79,5.44,5.44,0,0,0,0-2.62,1.65,1.65,0,0,0-.45-.8,1,1,0,0,0-.7-.27,1,1,0,0,0-.7.27,1.66,1.66,0,0,0-.46.8,4.83,4.83,0,0,0-.16,1.31,4.46,4.46,0,0,0,.16,1.31,1.75,1.75,0,0,0,.45.79,1,1,0,0,0,.71.27A1,1,0,0,0,62.79,93.58Z"/><path class="cls-6" d="M67.06,94.61a2.67,2.67,0,0,1-1-1.21,5.78,5.78,0,0,1,0-3.85,2.73,2.73,0,0,1,1-1.21,2.85,2.85,0,0,1,3,0,2.71,2.71,0,0,1,1,1.22,5.75,5.75,0,0,1,0,3.84,2.63,2.63,0,0,1-1,1.22,2.68,2.68,0,0,1-1.49.41A2.61,2.61,0,0,1,67.06,94.61Zm2.19-1a1.67,1.67,0,0,0,.46-.79,5.44,5.44,0,0,0,0-2.62,1.66,1.66,0,0,0-.46-.8,1,1,0,0,0-1.4,0,1.74,1.74,0,0,0-.45.8,4.46,4.46,0,0,0-.16,1.31,4.87,4.87,0,0,0,.15,1.31,1.67,1.67,0,0,0,.46.79,1,1,0,0,0,1.4,0Z"/><path class="cls-6" d="M73.52,94.61a2.65,2.65,0,0,1-1-1.21,5.62,5.62,0,0,1,0-3.85,2.6,2.6,0,0,1,1-1.21A2.58,2.58,0,0,1,75,87.92a2.5,2.5,0,0,1,2.45,1.64,5.75,5.75,0,0,1,0,3.84,2.63,2.63,0,0,1-1,1.22A2.66,2.66,0,0,1,75,95,2.63,2.63,0,0,1,73.52,94.61Zm2.2-1a1.75,1.75,0,0,0,.45-.79,5.44,5.44,0,0,0,0-2.62,1.66,1.66,0,0,0-.46-.8,1,1,0,0,0-.7-.27,1,1,0,0,0-.69.27,1.66,1.66,0,0,0-.46.8,4.83,4.83,0,0,0-.16,1.31,4.46,4.46,0,0,0,.16,1.31,1.59,1.59,0,0,0,.45.79,1,1,0,0,0,.7.27A1,1,0,0,0,75.72,93.58Z"/><polygon class="cls-4" points="94.14 80.24 82.05 80.24 76 83.64 100.19 83.64 94.14 80.24"/><polygon class="cls-7" points="110.84 76.64 98.97 97.21 122.72 97.21 110.84 76.64"/><path class="cls-7" d="M98,97.21c0-2.81,2.91-5.09,6.5-5.09H117.2c3.59,0,6.49,2.28,6.49,5.09Z"/><polygon class="cls-3" points="110.84 92.62 115.08 83.55 106.61 83.55 110.84 92.62"/><path class="cls-3" d="M115.08,80.12V84A2.12,2.12,0,0,1,113,86.11h-4.25A2.11,2.11,0,0,1,106.61,84V80.12"/><path class="cls-7" d="M106.61,80.12V76.24a2.1,2.1,0,0,1,2.11-2.11H113a2.11,2.11,0,0,1,2.11,2.11v3.88"/><rect class="cls-7" x="108.61" y="70.08" width="6.47" height="9.05" rx="3.23"/><path class="cls-8" d="M60.27,62.39V73.06a3.56,3.56,0,0,1-3.56,3.56H20.65a3.55,3.55,0,0,1-3.55-3.56V62.39"/><path class="cls-9" d="M17.1,62.39V51.72a3.55,3.55,0,0,1,3.55-3.55H56.71a3.56,3.56,0,0,1,3.56,3.55V62.39"/><rect class="cls-10" x="19.8" y="58.59" width="7.6" height="7.6" rx="2.71"/><path class="cls-11" d="M29.72,60.06h.84v1.79h.05l1.47-1.79h1l-1.5,1.81,1.52,2.22h-1L31,62.43l-.42.51v1.15h-.84Z"/><path class="cls-11" d="M33.5,60.06h1.61a1.77,1.77,0,0,1,.73.13,1,1,0,0,1,.45.36,1,1,0,0,1,.16.55.85.85,0,0,1-.1.4.81.81,0,0,1-.25.3,1.18,1.18,0,0,1-.38.16v0a.94.94,0,0,1,.43.13.9.9,0,0,1,.33.34,1.07,1.07,0,0,1,.12.51,1,1,0,0,1-.16.58A1.09,1.09,0,0,1,36,64a1.91,1.91,0,0,1-.76.14H33.5Zm1.8,1.63a.67.67,0,0,0,.22-.18.51.51,0,0,0,.08-.28.46.46,0,0,0-.07-.26.51.51,0,0,0-.21-.17.79.79,0,0,0-.32-.06h-.66v1H35A.79.79,0,0,0,35.3,61.69Zm.14,1.65a.44.44,0,0,0,.22-.17.5.5,0,0,0,.08-.27.61.61,0,0,0-.08-.3.55.55,0,0,0-.24-.21,1,1,0,0,0-.35-.07h-.73v1.09h.71A1.13,1.13,0,0,0,35.44,63.34Z"/><path class="cls-11" d="M41.58,62.07H36.94V61.5h4.64ZM41,64.61h-.71V63.36H37.41V62.8H41Zm-.28-4.29H37.51v-.56h3.24ZM39.61,63h-.72V61.9h.72ZM41,60.18c0,.19,0,.36,0,.51s0,.31,0,.5a4.51,4.51,0,0,1-.11.58l-.7-.07c0-.2.08-.39.1-.56a2.88,2.88,0,0,0,0-.47c0-.14,0-.3,0-.5h0v-.4H41v.42Z"/><path class="cls-11" d="M44.61,62.39H42.13V59.94h2.48Zm-1.17,1.79h-.72V62.81h.72Zm2.81.31H42.72v-.57h3.53Zm-3.42-2.67H43.9V60.51H42.83Zm3.29,1.33H45.4V59.54h.72Z"/><path class="cls-11" d="M49.26,61.55a3.14,3.14,0,0,1-.68,1.25,4.7,4.7,0,0,1-1.41,1l-.39-.54A4.22,4.22,0,0,0,48,62.45a2.55,2.55,0,0,0,.6-1,5,5,0,0,0,.17-1.32V60h.69A5.82,5.82,0,0,1,49.26,61.55ZM46.92,62l-.09-.61,1.94-.11v.55Zm2.26-1.4H47.1V60h2.08Zm1.62,4h-.71V59.53h.71Zm.72-2.53h-.9v-.58h.9Z"/><path class="cls-11" d="M56.37,64H51.74V63.4h4.63Zm-.54-3.46H53v1.59h-.7V60h3.55Zm0,1.92H52.28v-.57h3.58Z"/><circle class="cls-12" cx="71.44" cy="42.03" r="6.35"/><circle class="cls-13" cx="71.44" cy="42.03" r="4.97"/><path class="cls-14" d="M68.66,40.73h.69v-.54h.35v1.67H68.3V40.19h.36Zm.69.83V41h-.69v.54Zm1.83,1.95h-.37V42.6h-2v-.31h2.41Zm-.77-1.43h-.35V40h.35Zm.52-.9h-.64v-.31h.64Zm.25.92h-.35V40h.35Z"/><path class="cls-14" d="M71.68,41.59l1.23,0c.36,0,.71,0,1-.08l0,.27q-.36.06-.75.09l-.77,0h-.76l0-.3Zm1.59-1.41a.65.65,0,0,1,.31.22.52.52,0,0,1,.11.32.52.52,0,0,1-.11.33.73.73,0,0,1-.31.22,1.55,1.55,0,0,1-.92,0,.61.61,0,0,1-.31-.22.48.48,0,0,1-.12-.33A.47.47,0,0,1,72,40.4a.61.61,0,0,1,.31-.22,1.11,1.11,0,0,1,.46-.08A1.14,1.14,0,0,1,73.27,40.18Zm-.76,3h-.37v-.83h.37Zm2.2.22H72.14v-.31h2.57Zm-2.18-3a.41.41,0,0,0-.18.12.26.26,0,0,0-.07.18.28.28,0,0,0,.07.19.41.41,0,0,0,.18.12,1.18,1.18,0,0,0,.28,0,1.1,1.1,0,0,0,.27,0,.52.52,0,0,0,.19-.12.33.33,0,0,0,.06-.19.3.3,0,0,0-.06-.18.52.52,0,0,0-.19-.12.77.77,0,0,0-.27,0A.82.82,0,0,0,72.53,40.42ZM73,42.55h-.38v-.79H73Zm1.3-.23h-.81v-.27h.81Zm.28.34h-.38V40h.38Z"/><circle class="cls-12" cx="20.85" cy="94.12" r="6.35"/><circle class="cls-13" cx="20.85" cy="94.12" r="4.97"/><path class="cls-14" d="M18.07,92.82h.69v-.55h.35V94H17.72V92.27h.35Zm.69.82v-.53h-.69v.53Zm1.84,2h-.38v-.91h-2v-.31H20.6Zm-.78-1.44h-.35v-2h.35Zm.53-.9H19.7V93h.65Zm.25.92h-.36V92.05h.36Z"/><path class="cls-14" d="M21.1,93.67l1.23,0c.36,0,.7,0,1-.08l0,.27c-.24,0-.49.07-.76.09l-.76,0c-.25,0-.5,0-.76,0l-.05-.3Zm1.58-1.41a.67.67,0,0,1,.31.22.52.52,0,0,1,.12.33.5.5,0,0,1-.12.33.66.66,0,0,1-.31.21,1.25,1.25,0,0,1-.45.08,1.16,1.16,0,0,1-.47-.08.71.71,0,0,1-.31-.21.52.52,0,0,1-.11-.33.57.57,0,0,1,.11-.33.73.73,0,0,1,.31-.22,1.37,1.37,0,0,1,.47-.07A1.25,1.25,0,0,1,22.68,92.26Zm-.75,3h-.38v-.82h.38Zm2.19.23H21.55v-.31h2.57Zm-2.17-3a.52.52,0,0,0-.19.12.3.3,0,0,0,0,.36.52.52,0,0,0,.19.12.79.79,0,0,0,.28,0,.68.68,0,0,0,.26,0,.44.44,0,0,0,.19-.12.27.27,0,0,0,0-.36.44.44,0,0,0-.19-.12.68.68,0,0,0-.26,0A.79.79,0,0,0,22,92.51Zm.5,2.12h-.38v-.79h.38Zm1.3-.23h-.81v-.26h.81Zm.29.34h-.38V92.05H24Z"/><circle class="cls-12" cx="155.86" cy="80.24" r="6.35"/><circle class="cls-13" cx="155.86" cy="80.24" r="4.97"/><path class="cls-14" d="M153.08,78.94h.69v-.55h.35v1.68h-1.39V78.39h.35Zm.69.82v-.53h-.69v.53Zm1.83,2h-.37v-.91h-2V80.5h2.41Zm-.77-1.44h-.35v-2h.35Zm.52-.9h-.64v-.31h.64Zm.25.92h-.35V78.17h.35Z"/><path class="cls-14" d="M156.1,79.79q.69,0,1.23,0c.37,0,.71,0,1-.08l0,.27c-.24,0-.49.07-.76.09s-.52,0-.76,0h-.76l-.05-.3Zm1.59-1.41a.73.73,0,0,1,.31.22.51.51,0,0,1,0,.66.71.71,0,0,1-.31.21,1.26,1.26,0,0,1-.46.08,1.3,1.3,0,0,1-.46-.08.71.71,0,0,1-.31-.21.55.55,0,0,1,0-.66.73.73,0,0,1,.31-.22,1.34,1.34,0,0,1,.46-.08A1.3,1.3,0,0,1,157.69,78.38Zm-.75,3h-.38V80.6h.38Zm2.19.22h-2.57v-.3h2.57Zm-2.17-3a.31.31,0,0,0-.19.12.27.27,0,0,0,0,.36.44.44,0,0,0,.19.12.93.93,0,0,0,.54,0,.52.52,0,0,0,.19-.12.27.27,0,0,0,0-.36.35.35,0,0,0-.19-.12.75.75,0,0,0-.54,0Zm.5,2.12h-.38V80h.38Zm1.3-.23H158v-.26h.81Zm.28.34h-.37V78.17H159Z"/><path class="cls-14" d="M88.27,44a3.57,3.57,0,0,1-.78,1.18,4.71,4.71,0,0,1-1.32.93l-.2-.3A4.4,4.4,0,0,0,87.19,45a3.36,3.36,0,0,0,.73-1.06,3.1,3.1,0,0,0,.25-1.25v0h.35A3.65,3.65,0,0,1,88.27,44Zm0-1.07H86.19v-.29h2.12ZM90,47h-.35V42H90Z"/><path class="cls-14" d="M92.3,43.83a2.07,2.07,0,0,1-.5.67,2.19,2.19,0,0,1-.72.43l-.19-.29a1.94,1.94,0,0,0,.66-.37A1.84,1.84,0,0,0,92,43.7a1.53,1.53,0,0,0,.17-.69v-.44h.29V43A1.89,1.89,0,0,1,92.3,43.83Zm1.39-1.11H91v-.3h2.68Zm.37,2.6a1.24,1.24,0,0,1,.56.3.69.69,0,0,1,.2.48.68.68,0,0,1-.2.49,1.16,1.16,0,0,1-.56.31,3.12,3.12,0,0,1-.87.11,3.25,3.25,0,0,1-.88-.11,1.21,1.21,0,0,1-.56-.31.67.67,0,0,1-.19-.49.68.68,0,0,1,.19-.48,1.29,1.29,0,0,1,.56-.3,3.25,3.25,0,0,1,.88-.11A3.12,3.12,0,0,1,94.06,45.32Zm-1.55.26a1,1,0,0,0-.45.2.42.42,0,0,0-.15.32.43.43,0,0,0,.15.33,1.18,1.18,0,0,0,.45.21,2.93,2.93,0,0,0,1.36,0,1.11,1.11,0,0,0,.45-.21.43.43,0,0,0,.15-.33.42.42,0,0,0-.15-.32,1,1,0,0,0-.45-.2,2.93,2.93,0,0,0-1.36,0Zm.19-1.94a1.67,1.67,0,0,0,.44.52,2.09,2.09,0,0,0,.64.35l-.17.28a2.25,2.25,0,0,1-.71-.4,2.11,2.11,0,0,1-.48-.63,1.64,1.64,0,0,1-.18-.76v-.43h.3V43A1.32,1.32,0,0,0,92.7,43.64Zm2.08,1.43h-.36V42h.36Zm.77-1.42h-.87v-.3h.87Z"/><path class="cls-14" d="M98,42.65a1.31,1.31,0,0,1,.44.6,2.35,2.35,0,0,1,.16.91,2.31,2.31,0,0,1-.16.91,1.31,1.31,0,0,1-.44.6,1.13,1.13,0,0,1-1.31,0,1.38,1.38,0,0,1-.44-.6,2.31,2.31,0,0,1-.16-.91,2.35,2.35,0,0,1,.16-.91,1.38,1.38,0,0,1,.44-.6,1.13,1.13,0,0,1,1.31,0Zm-1.13.28a1.11,1.11,0,0,0-.32.5,2.28,2.28,0,0,0,0,1.46,1.11,1.11,0,0,0,.32.5.72.72,0,0,0,1,0,1.11,1.11,0,0,0,.32-.5,2.28,2.28,0,0,0,0-1.46,1.11,1.11,0,0,0-.32-.5.72.72,0,0,0-1,0ZM100,47h-.36V42H100Z"/><path class="cls-14" d="M101.47,45.61h-.35V42.54h.35Zm1.21-.22q.57-.06,1.17-.18l.05.31a10.49,10.49,0,0,1-1.2.17c-.39,0-.79.05-1.19.05h-.39v-.3h.39C101.91,45.44,102.3,45.42,102.68,45.39Zm2,1.63h-.35V42h.35Zm.85-2.65h-.94v-.31h.94Z"/><path class="cls-14" d="M111.86,46.36H107.3v-.3h4.56Zm-1.36-3.81a1.48,1.48,0,0,1,.64.45,1,1,0,0,1,.23.67,1,1,0,0,1-.23.68,1.48,1.48,0,0,1-.64.45,2.67,2.67,0,0,1-.93.15,2.77,2.77,0,0,1-.94-.15,1.61,1.61,0,0,1-.64-.45,1.09,1.09,0,0,1-.23-.68A1.07,1.07,0,0,1,108,43a1.61,1.61,0,0,1,.64-.45,2.54,2.54,0,0,1,.94-.16A2.45,2.45,0,0,1,110.5,42.55Zm-1.68.26a1.2,1.2,0,0,0-.53.35.79.79,0,0,0,0,1,1.23,1.23,0,0,0,.52.35,2.44,2.44,0,0,0,1.51,0,1.17,1.17,0,0,0,.52-.35.79.79,0,0,0,0-1,1.17,1.17,0,0,0-.52-.35,2.23,2.23,0,0,0-.75-.12A2.19,2.19,0,0,0,108.82,42.81Zm.92,3.33h-.35V44.86h.35Z"/><path class="cls-14" d="M114.32,42.48a1.17,1.17,0,0,1,.46.42,1.08,1.08,0,0,1,.16.6,1.12,1.12,0,0,1-.16.6,1.14,1.14,0,0,1-.46.41,1.51,1.51,0,0,1-1.31,0,1.08,1.08,0,0,1-.46-.41,1,1,0,0,1-.16-.6,1,1,0,0,1,.16-.6,1.1,1.1,0,0,1,.46-.42,1.51,1.51,0,0,1,1.31,0Zm-1.14.27a.9.9,0,0,0-.33.31.87.87,0,0,0,0,.88.9.9,0,0,0,.33.31,1.14,1.14,0,0,0,.49.11,1,1,0,0,0,.47-.11.85.85,0,0,0,.34-.31.87.87,0,0,0,0-.88.93.93,0,0,0-.34-.31,1,1,0,0,0-.47-.11A1.14,1.14,0,0,0,113.18,42.75Zm3.23,4.2h-3.23V45.18h3.23Zm-2.88-.3h2.53V45.48h-2.53Zm2.63-3.57h-1.54v-.3h1.54Zm0,1.13h-1.54V43.9h1.54Zm.25.71h-.36V42h.36Z"/><path class="cls-14" d="M117.39,44.24l-.06-.32,1.74-.12v.27Zm1.92-.33a3,3,0,0,1-.6,1.13,3.75,3.75,0,0,1-1.15.93l-.21-.26a3.85,3.85,0,0,0,1.07-.83,3,3,0,0,0,.56-1,4,4,0,0,0,.17-1.17v0h.34A4.38,4.38,0,0,1,119.31,43.91Zm0-1h-1.73v-.3h1.73Zm1,1.4H119.1V44h1.21Zm.2,2.42h-.34V42.18h.34Zm1,.26h-.34V42h.34Z"/><path class="cls-14" d="M124.27,42.65a1.29,1.29,0,0,1,.43.6,2.35,2.35,0,0,1,.16.91,2.31,2.31,0,0,1-.16.91,1.29,1.29,0,0,1-.43.6,1.08,1.08,0,0,1-1.28,0,1.38,1.38,0,0,1-.44-.6,2.52,2.52,0,0,1-.15-.91,2.55,2.55,0,0,1,.15-.91,1.38,1.38,0,0,1,.44-.6,1.08,1.08,0,0,1,1.28,0Zm-1.1.28a1.2,1.2,0,0,0-.32.5,2.48,2.48,0,0,0,0,1.46,1.2,1.2,0,0,0,.32.5.68.68,0,0,0,.92,0,1.11,1.11,0,0,0,.32-.5,2.28,2.28,0,0,0,0-1.46,1.11,1.11,0,0,0-.32-.5.68.68,0,0,0-.92,0Zm3,1.34h-1.48V44h1.48Zm.19,2.76h-.35V42h.35Z"/><path class="cls-14" d="M129,42.69a1.39,1.39,0,0,1,.37.59,3,3,0,0,1,0,1.81,1.37,1.37,0,0,1-.37.6.78.78,0,0,1-.56.2.76.76,0,0,1-.56-.2,1.37,1.37,0,0,1-.37-.6,3,3,0,0,1,0-1.81,1.39,1.39,0,0,1,.37-.59.81.81,0,0,1,.56-.21A.83.83,0,0,1,129,42.69Zm-.95.29a1.19,1.19,0,0,0-.25.49,2.53,2.53,0,0,0-.09.72,2.63,2.63,0,0,0,.09.72,1.21,1.21,0,0,0,.25.48.52.52,0,0,0,.77,0,1.22,1.22,0,0,0,.26-.48,2.63,2.63,0,0,0,.09-.72,2.53,2.53,0,0,0-.09-.72,1.2,1.2,0,0,0-.26-.49.52.52,0,0,0-.77,0Zm2.3,1.34h-1V44h1Zm.22,2.44h-.35v-4.6h.35Zm1,.26h-.35V42h.35Z"/><path class="cls-14" d="M135.13,42.87h-.9v2.67h-.36v-3h1.26Zm-.52,2.49.58-.09,0,.3a5.35,5.35,0,0,1-.6.1l-.55,0h-.21v-.31h.21A5,5,0,0,0,134.61,45.36Zm2.14-2.49h-1v2.67h-.35v-3h1.32Zm-.41,2.49a4.17,4.17,0,0,0,.6-.1l0,.3a3.58,3.58,0,0,1-.43.08l-.42,0h-.7v-.31h.23ZM137.62,47h-.36V42h.36Zm.77-2.68h-.94V44h.94Z"/><path class="cls-14" d="M143.26,45.12H138.7v-.29h4.56Zm-.6-1.71h-3v.73h-.35v-1h3v-.61h-3v-.29h3.38Zm.11.91H139.3V44h3.47Zm-3.1,2.38h-.36V45.55h.36Zm3.1.21h-3.46V46.6h3.46Z"/><path class="cls-14" d="M149.65,45.37h-4.54v-.31h4.54Zm-2.42-1.6a2.23,2.23,0,0,1-.74.56,3.53,3.53,0,0,1-1,.31l-.13-.3a3,3,0,0,0,.84-.25,2.28,2.28,0,0,0,.68-.47.87.87,0,0,0,.27-.61v-.13h.31V43A1.15,1.15,0,0,1,147.23,43.77Zm2-.8h-3.64v-.3h3.64Zm-1.65-.19h-.35V42h.35Zm0,4.25h-.35V45.19h.35Zm.27-3.41a2.28,2.28,0,0,0,.68.47,3,3,0,0,0,.84.25l-.14.3a3.46,3.46,0,0,1-.94-.31,2.21,2.21,0,0,1-.73-.57,1.12,1.12,0,0,1-.29-.75v-.13h.31V43A.87.87,0,0,0,147.82,43.62Z"/><path class="cls-14" d="M152.42,43.93a3.64,3.64,0,0,1-.76,1.19,4.27,4.27,0,0,1-1.3.92l-.2-.28a4.4,4.4,0,0,0,1.19-.82,3.26,3.26,0,0,0,.72-1.07,3.17,3.17,0,0,0,.24-1.23v-.06h.36A4,4,0,0,1,152.42,43.93Zm.08-1h-2.12v-.31h2.12ZM153.94,47h-.36V42h.36Zm.84-2.61h-.93V44.1h.93Z"/><path class="cls-14" d="M161.07,46.36h-4.56v-.3h4.56Zm-1.36-3.82a1.44,1.44,0,0,1,.64.44,1.06,1.06,0,0,1,0,1.32,1.44,1.44,0,0,1-.64.44,2.5,2.5,0,0,1-.94.16,2.45,2.45,0,0,1-.93-.16,1.44,1.44,0,0,1-.64-.44,1.06,1.06,0,0,1,0-1.32,1.44,1.44,0,0,1,.64-.44,2.45,2.45,0,0,1,.93-.16A2.5,2.5,0,0,1,159.71,42.54Zm-1.69.25a1.26,1.26,0,0,0-.52.35.73.73,0,0,0-.19.5.75.75,0,0,0,.19.51,1.24,1.24,0,0,0,.52.34,2.19,2.19,0,0,0,.75.12,2.29,2.29,0,0,0,.76-.12,1.24,1.24,0,0,0,.52-.34.75.75,0,0,0,.19-.51.73.73,0,0,0-.19-.5,1.17,1.17,0,0,0-.52-.35,2.24,2.24,0,0,0-.76-.12A2.19,2.19,0,0,0,158,42.79Zm0,3.35h-.35V44.62H158Zm1.88,0h-.36V44.62h.36Z"/><path class="cls-14" d="M166.07,44.47h-4.56v-.3h4.56ZM165.49,47h-3.41V45.2h3.41Zm-.14-4.33H162.1v-.3h3.25Zm-2.92,4h2.71V45.49h-2.71Zm3-4v.5c0,.15,0,.32,0,.51a3.74,3.74,0,0,1-.12.6l-.35,0a4.9,4.9,0,0,0,.12-.6c0-.18,0-.35,0-.49v-.49h0v-.36h.35v.36Z"/><path class="cls-14" d="M168.62,42.65a1.4,1.4,0,0,1,.45.6,2.55,2.55,0,0,1,.16.91,2.51,2.51,0,0,1-.16.91,1.4,1.4,0,0,1-.45.6,1.07,1.07,0,0,1-.65.21,1,1,0,0,1-.65-.21,1.4,1.4,0,0,1-.45-.6,2.31,2.31,0,0,1-.16-.91,2.35,2.35,0,0,1,.16-.91,1.4,1.4,0,0,1,.45-.6,1,1,0,0,1,.65-.21A1.07,1.07,0,0,1,168.62,42.65Zm-1.13.28a1.2,1.2,0,0,0-.32.5,2.28,2.28,0,0,0,0,1.46,1.2,1.2,0,0,0,.32.5.72.72,0,0,0,.95,0,1.11,1.11,0,0,0,.32-.5,2.28,2.28,0,0,0,0-1.46,1.11,1.11,0,0,0-.32-.5.72.72,0,0,0-.95,0ZM170.6,47h-.36V42h.36Z"/><path class="cls-14" d="M174.93,42.41a1.08,1.08,0,0,1,.46.41,1.09,1.09,0,0,1-.46,1.58,1.27,1.27,0,0,1-.65.14,1.32,1.32,0,0,1-.67-.14,1,1,0,0,1-.45-.4,1.11,1.11,0,0,1,0-1.18,1.05,1.05,0,0,1,.45-.41,1.57,1.57,0,0,1,.67-.14A1.51,1.51,0,0,1,174.93,42.41Zm-1.14.27a.74.74,0,0,0-.33.3.83.83,0,0,0,0,.86.74.74,0,0,0,.33.3,1.07,1.07,0,0,0,.49.11,1.13,1.13,0,0,0,.48-.11.81.81,0,0,0,0-1.46,1.09,1.09,0,0,0-.48-.11A1.07,1.07,0,0,0,173.79,42.68Zm0,3h1V45h.33v2h-1.7V45h.34Zm1,1v-.75h-1v.75Zm1.55-.64a1.72,1.72,0,0,1-.36.57,1.63,1.63,0,0,1-.56.4l-.19-.28a1.5,1.5,0,0,0,.51-.33,1.61,1.61,0,0,0,.32-.48,1.24,1.24,0,0,0,.12-.53v-.43h.28v.43A1.82,1.82,0,0,1,176.41,46Zm.41-2.47h-1.39v-.3h1.39Zm-.12,2.36a1.71,1.71,0,0,0,.33.48,1.34,1.34,0,0,0,.51.32l-.19.28a1.49,1.49,0,0,1-.56-.39,1.72,1.72,0,0,1-.36-.57,1.84,1.84,0,0,1-.12-.66v-.43h.28v.43A1.49,1.49,0,0,0,176.7,45.91Zm.32-1.23h-.36V42H177Z"/><path class="cls-14" d="M182.45,44.65h-4.54v-.31h4.54ZM180,43.1a2.44,2.44,0,0,1-.76.55,3.55,3.55,0,0,1-.94.3l-.14-.29a3,3,0,0,0,.85-.25,2.19,2.19,0,0,0,.69-.46.82.82,0,0,0,.28-.6V42.1h.31v.25A1.16,1.16,0,0,1,180,43.1Zm-1.16,2.56h2.63V45h.36V47H178.5V45h.36Zm2.63,1V46h-2.63v.71Zm-.85-3.72a2.39,2.39,0,0,0,.7.47,3,3,0,0,0,.84.25l-.13.29a4,4,0,0,1-1-.3,2.54,2.54,0,0,1-.75-.56,1.13,1.13,0,0,1-.29-.74V42.1h.3v.25A.84.84,0,0,0,180.64,42.94Z"/><path class="cls-14" d="M183.6,45.61h-.35V42.54h.35Zm1.26-.26a10.46,10.46,0,0,0,1.21-.19l.05.31a11.69,11.69,0,0,1-1.24.19q-.6.06-1.23.06h-.4V45.4h.4C184.06,45.4,184.47,45.38,184.86,45.35ZM187,47h-.35V42H187Z"/><path class="cls-14" d="M190.46,42.83h-2v2.76h-.35V42.53h2.32Zm-.66,2.59a8,8,0,0,0,1.07-.14l0,.32a10.76,10.76,0,0,1-1.09.13c-.36,0-.79,0-1.31,0h-.38v-.31h.38C189,45.46,189.44,45.45,189.8,45.42ZM191.75,47h-.36V42h.36Zm.86-2.68h-1v-.3h1Z"/><path class="cls-14" d="M193.25,46.57a.38.38,0,0,1-.11-.11.33.33,0,0,1,0-.15.42.42,0,0,1,0-.15.38.38,0,0,1,.11-.11.29.29,0,0,1,.16,0,.28.28,0,0,1,.15,0,.38.38,0,0,1,.11.11.42.42,0,0,1,0,.15.33.33,0,0,1,0,.15.38.38,0,0,1-.11.11.28.28,0,0,1-.15,0A.29.29,0,0,1,193.25,46.57Z"/><path class="cls-14" d="M87.33,51.75a2,2,0,0,1-.5.68,2.14,2.14,0,0,1-.71.45l-.19-.28a2.21,2.21,0,0,0,.66-.39,2,2,0,0,0,.46-.6,1.41,1.41,0,0,0,.17-.69v-.44h.3v.44A1.84,1.84,0,0,1,87.33,51.75Zm1.4-1.09H86.05v-.3h2.68Zm.52,2.56a1.2,1.2,0,0,1,.57.32A.68.68,0,0,1,90,54a.72.72,0,0,1-.2.5,1.29,1.29,0,0,1-.57.31,3.62,3.62,0,0,1-1.77,0,1.29,1.29,0,0,1-.57-.31.72.72,0,0,1-.2-.5.68.68,0,0,1,.2-.49,1.2,1.2,0,0,1,.57-.32,3.62,3.62,0,0,1,1.77,0Zm-1.57.26a1,1,0,0,0-.46.22.41.41,0,0,0-.16.33.44.44,0,0,0,.16.34,1.16,1.16,0,0,0,.46.21,2.73,2.73,0,0,0,.69.08,2.84,2.84,0,0,0,.69-.08,1.18,1.18,0,0,0,.45-.21.44.44,0,0,0,.16-.34.41.41,0,0,0-.16-.33,1.05,1.05,0,0,0-.45-.22,2.84,2.84,0,0,0-.69-.08A2.73,2.73,0,0,0,87.68,53.48Zm.06-1.93a1.91,1.91,0,0,0,.45.54,2,2,0,0,0,.64.36l-.18.29a2.25,2.25,0,0,1-.7-.42,2.14,2.14,0,0,1-.49-.64,1.69,1.69,0,0,1-.17-.76v-.44h.29v.44A1.34,1.34,0,0,0,87.74,51.55Zm2,.05h-1.2v-.3h1.2ZM90,53h-.35V50H90Z"/><path class="cls-14" d="M92.31,51.65a2,2,0,0,1-.52.56,2.59,2.59,0,0,1-.73.35l-.17-.28a2.47,2.47,0,0,0,.66-.3,1.66,1.66,0,0,0,.48-.47,1.08,1.08,0,0,0,.17-.57v-.23h.3v.23A1.48,1.48,0,0,1,92.31,51.65Zm1.4-.84H91v-.29h2.67ZM94.78,54H92v.77h-.35v-1h2.77v-.55H91.64v-.29h3.14Zm.19.9H91.65V54.6H95Zm-2.41-4.22H92.2V50h.36Zm.16.8a1.63,1.63,0,0,0,.47.43,2,2,0,0,0,.64.28l-.16.28a2.16,2.16,0,0,1-.72-.33,1.67,1.67,0,0,1-.5-.53,1.22,1.22,0,0,1-.18-.66v-.23h.28v.23A1,1,0,0,0,92.72,51.47Zm2.06,1.15h-.36V50h.36Zm.77-1.2h-.94v-.3h.94Z"/><path class="cls-14" d="M97.12,52.44a3.18,3.18,0,0,1-.42.89,2.11,2.11,0,0,1-.62.61l-.23-.27a2.05,2.05,0,0,0,.59-.55,2.5,2.5,0,0,0,.4-.8,3,3,0,0,0,.14-.9v-.69h.28v.69A3.49,3.49,0,0,1,97.12,52.44Zm1.17-1.55H96v-.3h2.32Zm-.83,1.38a2.6,2.6,0,0,0,.39.76,1.91,1.91,0,0,0,.58.52l-.22.27a2,2,0,0,1-.61-.58,2.91,2.91,0,0,1-.41-.85,3.5,3.5,0,0,1-.14-1v-.69h.28v.69A2.74,2.74,0,0,0,97.46,52.27Zm1.46-.18h-1V51.8h1Zm.22,2.6H98.8V50.1h.34Zm1,.27H99.8V50h.34Z"/><path class="cls-14" d="M105.46,54.32H100.9V54h4.56Zm-.59-2.51h-3v1.06h-.35V51.52h3v-.86h-3v-.3h3.4ZM105,53h-3.5v-.3H105Zm-1.65,1.14H103V52.9h.35Z"/><path class="cls-14" d="M109.36,50.49a1.06,1.06,0,0,1,.46.43,1.1,1.1,0,0,1,.17.63,1.15,1.15,0,0,1-.17.63,1.12,1.12,0,0,1-.46.43,1.4,1.4,0,0,1-.66.15,1.45,1.45,0,0,1-.66-.15,1.19,1.19,0,0,1-.46-.43,1.24,1.24,0,0,1-.17-.63,1.17,1.17,0,0,1,.63-1.06,1.45,1.45,0,0,1,.66-.15A1.4,1.4,0,0,1,109.36,50.49Zm-1.14.27a.87.87,0,0,0-.33.33.8.8,0,0,0-.13.46.82.82,0,0,0,.13.46.92.92,0,0,0,.33.32,1,1,0,0,0,.48.12,1,1,0,0,0,.49-.12.92.92,0,0,0,.33-.32.82.82,0,0,0,.13-.46.8.8,0,0,0-.13-.46.87.87,0,0,0-.33-.33,1.12,1.12,0,0,0-1,0Zm.23,3.89h-.36V53.28h.36Zm3,.19h-3.33v-.3h3.33Zm-.24-1.18h-.36V50h.36Zm.77-1.84h-.89v-.31H112Z"/><path class="cls-14" d="M113.77,51.51a2.19,2.19,0,0,1-.5.7,2.32,2.32,0,0,1-.72.46l-.19-.28A2.05,2.05,0,0,0,113,52a1.82,1.82,0,0,0,.47-.6,1.66,1.66,0,0,0,.17-.73v-.49h.3v.49A1.89,1.89,0,0,1,113.77,51.51Zm2.63,3.38h-3.21V53.12h3.21Zm-2.86-.3h2.51V53.41h-2.51Zm.65-3.24a1.84,1.84,0,0,0,.47.57,2.41,2.41,0,0,0,.66.38l-.18.27a2.32,2.32,0,0,1-.73-.42,2.07,2.07,0,0,1-.5-.67,1.74,1.74,0,0,1-.19-.82v-.49h.3v.49A1.41,1.41,0,0,0,114.19,51.35Zm2.21,1.46H116V50h.36Z"/><path class="cls-14" d="M120.25,51.1h-3v-.31h3Zm-.84.59a1.06,1.06,0,0,1,.58,1,1.15,1.15,0,0,1-.15.59,1.18,1.18,0,0,1-.43.4,1.44,1.44,0,0,1-1.24,0,1,1,0,0,1-.43-.4,1.24,1.24,0,0,1,0-1.18,1,1,0,0,1,.43-.4,1.44,1.44,0,0,1,1.24,0Zm-1.06.27a.69.69,0,0,0-.31.3.76.76,0,0,0-.12.42.74.74,0,0,0,.12.42.69.69,0,0,0,.31.3.89.89,0,0,0,.44.1.92.92,0,0,0,.44-.1.75.75,0,0,0,.31-.3.73.73,0,0,0,.11-.42.76.76,0,0,0-.11-.42.75.75,0,0,0-.31-.3.93.93,0,0,0-.44-.11A.9.9,0,0,0,118.35,52Zm.61-1h-.36V50H119Zm2.18,4h-.36V50h.36Zm.86-2.6h-1v-.3h1Z"/><path class="cls-14" d="M126.85,54.22H122.3v-.3h4.55Zm-.8-3.42h-3.26v-.3h3.26Zm-1.56,3.27h-.36v-2h.36Zm1.77-3c0,.27,0,.51,0,.71s0,.42,0,.68a7.07,7.07,0,0,1-.12.84l-.36-.05a6.1,6.1,0,0,0,.12-.81c0-.25,0-.48.06-.67s0-.43,0-.71V50.5h.35v.55Z"/><path class="cls-14" d="M131.21,52.37h-2.27v-2h2.27Zm-1.93-.29h1.59V50.62h-1.59Zm3.33,1.16h-2.78v1.53h-.35V53h3.13Zm.12,1.65h-3.25v-.28h3.25Zm-.18-.85H129.7v-.27h2.85Zm0-1.37h-.35V50h.35Zm.77-1.2h-.87v-.31h.87Z"/><path class="cls-14" d="M136.08,51.89a3.67,3.67,0,0,1-.78,1.18A4.69,4.69,0,0,1,134,54l-.2-.29a4.57,4.57,0,0,0,1.22-.82,3.25,3.25,0,0,0,.73-1.06,3.07,3.07,0,0,0,.25-1.25v0h.35A3.7,3.7,0,0,1,136.08,51.89Zm0-1.07H134v-.3h2.12ZM137.8,55h-.35V50h.35Z"/><path class="cls-14" d="M139.94,52.42a2.72,2.72,0,0,1-.43.85,2.09,2.09,0,0,1-.61.58l-.24-.26a2,2,0,0,0,.59-.54,2.56,2.56,0,0,0,.55-1.59v-1h.29v1A3.11,3.11,0,0,1,139.94,52.42Zm.35-.19a2.67,2.67,0,0,0,.38.73,1.94,1.94,0,0,0,.57.51l-.21.28a2.09,2.09,0,0,1-.61-.58,2.81,2.81,0,0,1-.41-.81,3.26,3.26,0,0,1-.14-.92v-1h.28v1A2.2,2.2,0,0,0,140.29,52.23Zm1.42-.13h-1v-.3h1Zm.22,2.6h-.34V50.09h.34Zm1,.26h-.35V50H143Z"/><path class="cls-14" d="M148.27,54.3h-4.56V54h4.56Zm-1.36-3.83a1.38,1.38,0,0,1,.64.44,1,1,0,0,1,.23.67,1,1,0,0,1-.23.66,1.46,1.46,0,0,1-.64.44,2.73,2.73,0,0,1-.94.15,2.67,2.67,0,0,1-.93-.15,1.52,1.52,0,0,1-.64-.44,1,1,0,0,1-.23-.66,1.07,1.07,0,0,1,.23-.67,1.44,1.44,0,0,1,.64-.44,2.81,2.81,0,0,1,1.87,0Zm-1.69.26a1.21,1.21,0,0,0-.52.34.75.75,0,0,0-.19.51.73.73,0,0,0,.19.5,1.21,1.21,0,0,0,.52.34,2,2,0,0,0,.75.13,2,2,0,0,0,.76-.13,1.15,1.15,0,0,0,.52-.34.73.73,0,0,0,.19-.5.75.75,0,0,0-.19-.51,1.15,1.15,0,0,0-.52-.34,2.44,2.44,0,0,0-1.51,0Zm0,3.35h-.35V52.55h.35Zm1.88,0h-.36V52.55h.36Z"/><path class="cls-14" d="M149.05,54.5a.2.2,0,0,1-.11-.11.24.24,0,0,1,0-.15.28.28,0,0,1,0-.15.23.23,0,0,1,.11-.11.3.3,0,0,1,.3,0,.23.23,0,0,1,.11.11.28.28,0,0,1,0,.15.24.24,0,0,1,0,.15.2.2,0,0,1-.11.11.25.25,0,0,1-.3,0Z"/><path class="cls-14" d="M31,18.81H24v-1h7Zm-2,.59a2.41,2.41,0,0,1,1,.66,1.44,1.44,0,0,1,.36,1A1.49,1.49,0,0,1,30,22a2.37,2.37,0,0,1-1,.65,4.28,4.28,0,0,1-1.49.23A4.42,4.42,0,0,1,26,22.67,2.37,2.37,0,0,1,25,22a1.49,1.49,0,0,1-.36-1,1.44,1.44,0,0,1,.36-1,2.39,2.39,0,0,1,1-.66,5.07,5.07,0,0,1,3,0Zm-1.9,4.91h4.74v-.92h1.47v3.85H25.68V23.39h1.44Zm-.39-4.07a1.08,1.08,0,0,0-.52.32A.64.64,0,0,0,26,21a.69.69,0,0,0,.19.49,1.07,1.07,0,0,0,.52.31,2.86,2.86,0,0,0,1.57,0,1.15,1.15,0,0,0,.53-.31A.73.73,0,0,0,29,21a.68.68,0,0,0-.19-.47,1.16,1.16,0,0,0-.53-.32,3.13,3.13,0,0,0-1.57,0Zm1.51-1.89H26.79V16.7h1.45Zm3.62,7.86v-.89H27.12v.89ZM33.33,23H31.86V16.79h1.47ZM35,20.48H32.73V19.39H35Z"/><path class="cls-14" d="M41.8,21.68H37.73v2.53h-1.5V20.64h4.09V18.76h-4.1V17.71H41.8Zm-1.52,2.05c.89-.05,1.82-.15,2.77-.29l.13,1.07c-1,.14-1.88.24-2.8.29s-2,.08-3.11.08h-1V23.81h1C38.38,23.81,39.38,23.79,40.28,23.73Zm5.16,3.66H44V16.79h1.45Z"/><path class="cls-14" d="M50.84,20.48A4.45,4.45,0,0,1,49.7,22a4.85,4.85,0,0,1-1.81,1l-.75-1a4.55,4.55,0,0,0,1.57-.79,3.53,3.53,0,0,0,1-1.18A3,3,0,0,0,50,18.61v-.77h1.19v.77A4.58,4.58,0,0,1,50.84,20.48Zm3.13-2h-6.4v-1H54Zm3.11,8.9H55.63V24.65H49v-1h8.07Zm-5.24-7.49A3.49,3.49,0,0,0,52.78,21a4.6,4.6,0,0,0,1.52.75l-.73,1a4.76,4.76,0,0,1-1.76-.92,4.21,4.21,0,0,1-1.11-1.46,4.26,4.26,0,0,1-.37-1.77v-.76h1.19v.76A2.67,2.67,0,0,0,51.84,19.88Zm4.2.59H53.62V19.41H56Zm1,2.63H55.63V16.79h1.45Z"/><path class="cls-14" d="M63.78,17.83a2.75,2.75,0,0,1,1.15.94,2.33,2.33,0,0,1,.42,1.36,2.37,2.37,0,0,1-.42,1.38,2.78,2.78,0,0,1-1.14.94,4.05,4.05,0,0,1-3.25,0,2.81,2.81,0,0,1-1.15-.94,2.44,2.44,0,0,1,0-2.74,2.89,2.89,0,0,1,1.15-.94,3.76,3.76,0,0,1,1.62-.34A3.7,3.7,0,0,1,63.78,17.83Zm-2.52,1a1.59,1.59,0,0,0-.64.53,1.43,1.43,0,0,0-.22.79,1.45,1.45,0,0,0,.22.81,1.63,1.63,0,0,0,.63.53,2.25,2.25,0,0,0,1.81,0,1.63,1.63,0,0,0,.63-.53,1.45,1.45,0,0,0,.23-.81,1.43,1.43,0,0,0-.23-.79,1.63,1.63,0,0,0-.63-.53,2.19,2.19,0,0,0-.9-.18A2.16,2.16,0,0,0,61.26,18.81Zm1,7.72H60.78V23.67h1.47Zm6.69.64H60.78V26.11h8.16Zm-.33-2.72H67.15V16.79h1.46Z"/><path class="cls-14" d="M79.14,20.9a7.2,7.2,0,0,1-1.74,2.56,10.57,10.57,0,0,1-3.1,2l-.82-1a10.43,10.43,0,0,0,2.66-1.65,6.07,6.07,0,0,0,1.58-2.1,6.28,6.28,0,0,0,.53-2.59v-.24h1.43A8.52,8.52,0,0,1,79.14,20.9ZM79,19H74.11V17.88H79Zm3.81,8.39H81.35V16.79H82.8ZM84.56,22H82.43V20.92h2.13Z"/><path class="cls-14" d="M90.76,20a5.52,5.52,0,0,1-1.9,1.88,10.48,10.48,0,0,1-3,1.2l-.55-1a9.54,9.54,0,0,0,2.51-.93,4.56,4.56,0,0,0,1.57-1.33,2.78,2.78,0,0,0,.53-1.63v-.63h1.53A4.72,4.72,0,0,1,90.76,20Zm0-1.42H85.92V17.47H90.8ZM95,27.34H93.58V24.56H87v-1H95Zm-1.3-5.49h-3V20.8h3Zm.1-2.25h-3v-1h3ZM95,23.09H93.58v-6.3H95Z"/></g></g></svg>