<svg xmlns="http://www.w3.org/2000/svg" viewBox="0 0 207.74 117.99"><defs><style>.cls-1{fill:#e9e9e9;}.cls-2{fill:#323333;stroke:#231815;stroke-miterlimit:10;stroke-width:0.4px;}.cls-3{fill:#c4c4c4;}.cls-4{fill:#98b8e1;}.cls-5{fill:#040000;}.cls-6{fill:#f2a09b;}.cls-7{fill:#231815;}.cls-8{fill:#1b1c1b;}</style></defs><g id="레이어_2" data-name="레이어 2"><g id="레이어_1-2" data-name="레이어 1"><rect class="cls-1" width="207.74" height="117.94" rx="6.71"/><rect class="cls-2" x="35.68" y="31.87" width="33.35" height="67.51" rx="6.06"/><rect class="cls-3" x="38.42" y="41.81" width="15.56" height="10.22" rx="2.42"/><rect class="cls-3" x="35.93" y="67.91" width="20.53" height="13.48" rx="2.42"/><rect class="cls-4" x="51.44" y="55.01" width="15.56" height="10.22" rx="2.42"/><path class="cls-5" d="M62.6,31.87c0,2-2,3.6-4.55,3.6H46.67c-2.52,0-4.56-1.61-4.56-3.6Z"/><path class="cls-6" d="M50.15,118V105.1a8.11,8.11,0,0,1,1.83-4c1.68-2.06,1.83-.53,3.21-4.12V90.23s.38-2.36-2.37-2.36V76s-2-3.66-4.19,0v8.69s.07.62-.61.46-3-1.68-4.12,1c0,0-3.58-.22-3.66,1.76,0,0-2.59-.61-3.05,1.52l1,11.82.46,6.41V118Z"/><path class="cls-7" d="M21.21,9.87a4.93,4.93,0,0,1-.76,1.52,3.55,3.55,0,0,1-1.19,1l-.59-.77a2.86,2.86,0,0,0,1.08-.85,4.11,4.11,0,0,0,.71-1.26,4.44,4.44,0,0,0,.24-1.44V7.17h.78v.91A5.92,5.92,0,0,1,21.21,9.87ZM23.4,7.55H19v-.8h4.4Zm-1.46,1.9a4,4,0,0,0,.7,1.21,2.93,2.93,0,0,0,1.08.8l-.58.78a3.25,3.25,0,0,1-1.19-1,4.42,4.42,0,0,1-.76-1.46,5.54,5.54,0,0,1-.26-1.73V7.17h.77v.91A4,4,0,0,0,21.94,9.45Zm2.78.13H22.94v-.8h1.78Zm.73,4.35h-1V6h1Z"/><path class="cls-7" d="M28,9.83H27V6.42h1Zm1.42-.23A13.77,13.77,0,0,0,31,9.41l.11.8a13.94,13.94,0,0,1-1.58.21c-.52,0-1.14.06-1.85.06H27V9.65h.61C28.32,9.65,28.91,9.64,29.41,9.6Zm3.81,4.31h-1v-2H27.78v-.79h5.44Zm-.74-6.33H30.19V6.84h2.29Zm0,1.41H30.19V8.25h2.29Zm.74,1.75h-1V6h1Z"/><path class="cls-7" d="M39.86,6.64a1.86,1.86,0,0,1,.77.67,1.9,1.9,0,0,1,0,2,1.86,1.86,0,0,1-.77.67,2.42,2.42,0,0,1-1.09.24,2.47,2.47,0,0,1-1.1-.24,1.86,1.86,0,0,1-.77-.67,1.84,1.84,0,0,1,0-1.95,1.86,1.86,0,0,1,.77-.67,2.62,2.62,0,0,1,2.19,0Zm-1,5.61a2.73,2.73,0,0,1-.61.93,2.59,2.59,0,0,1-1,.61l-.48-.71a2.53,2.53,0,0,0,.84-.48,2.24,2.24,0,0,0,.52-.69,1.91,1.91,0,0,0,.17-.77v-.33h.76v.33A3.17,3.17,0,0,1,38.91,12.25Zm-.76-4.9a1,1,0,0,0-.42.38,1.12,1.12,0,0,0,0,1.12,1,1,0,0,0,.42.37,1.38,1.38,0,0,0,.62.14,1.33,1.33,0,0,0,.6-.14,1,1,0,0,0,.42-.37,1.12,1.12,0,0,0,0-1.12,1,1,0,0,0-.42-.38,1.47,1.47,0,0,0-.6-.13A1.52,1.52,0,0,0,38.15,7.35Zm1.3,4.58a2.27,2.27,0,0,0,.47.7,2.23,2.23,0,0,0,.78.5l-.39.73a2.36,2.36,0,0,1-1-.64,2.63,2.63,0,0,1-.56-1,3.56,3.56,0,0,1-.18-1.13v-.33h.7v.33A2.17,2.17,0,0,0,39.45,11.93Zm2.37.29a2.9,2.9,0,0,1-.56,1,2.39,2.39,0,0,1-.95.66l-.4-.73a2.35,2.35,0,0,0,.77-.53,2.29,2.29,0,0,0,.47-.72,2,2,0,0,0,.15-.74v-.33H42v.33A3.4,3.4,0,0,1,41.82,12.22Zm.61-.28a1.88,1.88,0,0,0,.52.68,2.39,2.39,0,0,0,.85.46l-.48.71a2.61,2.61,0,0,1-1-.6,2.57,2.57,0,0,1-.6-.92,3.19,3.19,0,0,1-.2-1.13v-.33h.76v.33A1.82,1.82,0,0,0,42.43,11.94Zm.67-1.46h-1V6h1Z"/><path class="cls-7" d="M51.52,10.68H44.25V9.91h7.27ZM46.1,13.15h-1V11.39h1Zm4.65.58H45.13v-.8h5.62ZM46.17,8.6h-1V6.26h1ZM50.7,9H45.19V8.21H50.7Z"/><path class="cls-7" d="M56.57,8.29a3.2,3.2,0,0,1-2,1.88l-.5-.79a3,3,0,0,0,1.07-.58,2.65,2.65,0,0,0,.66-.88A2.77,2.77,0,0,0,56,6.86V6.28h.79v.58A4,4,0,0,1,56.57,8.29Zm.84,4.2H55.79v.95h-.95V11.8h1.63v-.54H54.82v-.72h2.59Zm-.79.6a5.16,5.16,0,0,0,.93-.12l.09.74a8.72,8.72,0,0,1-1,.12c-.32,0-.78,0-1.37,0h-.45v-.75h.45C55.87,13.11,56.31,13.11,56.62,13.09Zm.6-5.27a2.26,2.26,0,0,0,.64.81,3.1,3.1,0,0,0,1,.54l-.52.76a3,3,0,0,1-1.91-1.75,3.49,3.49,0,0,1-.24-1.35V6.28H57v.55A2.34,2.34,0,0,0,57.22,7.82Zm3.23,6h-2.6V10.54h2.6Zm-1.74-.72h.89V11.26h-.89Zm1.74-3h-1V6h1ZM61.56,8.4H60V7.6h1.52Z"/><path class="cls-7" d="M69.2,10H62V9.25H69.2ZM67.12,6.25a2.19,2.19,0,0,1,1,.46,1,1,0,0,1,0,1.48,2.19,2.19,0,0,1-1,.47,7.49,7.49,0,0,1-3.08,0,2.29,2.29,0,0,1-1-.47,1,1,0,0,1,0-1.48,2.28,2.28,0,0,1,1-.46,7.49,7.49,0,0,1,3.08,0Zm1.18,6.26H63.78v.8h-1v-1.5h4.51v-.52H62.82v-.73H68.3Zm.22,1.33H62.83V13.1h5.69Zm-4-6.95A1.71,1.71,0,0,0,64,7.1a.42.42,0,0,0-.21.35.45.45,0,0,0,.2.36,1.54,1.54,0,0,0,.61.21,6.67,6.67,0,0,0,2.06,0,1.4,1.4,0,0,0,.62-.21.41.41,0,0,0,0-.71,1.64,1.64,0,0,0-.62-.21,6.48,6.48,0,0,0-2,0Z"/><path class="cls-7" d="M74.6,10.14c.87,0,1.68-.12,2.45-.23l.07.72a15.8,15.8,0,0,1-1.58.23c-.55.05-1.07.08-1.57.1l-1.63,0H72l-.12-.8C72.84,10.2,73.74,10.18,74.6,10.14Zm1-3.61a1.68,1.68,0,0,1,.74.59,1.44,1.44,0,0,1,.27.86,1.47,1.47,0,0,1-.27.87,1.75,1.75,0,0,1-.74.59,2.62,2.62,0,0,1-1.07.21,2.54,2.54,0,0,1-1.06-.21,1.75,1.75,0,0,1-.74-.59A1.47,1.47,0,0,1,72.41,8a1.44,1.44,0,0,1,.27-.86,1.68,1.68,0,0,1,.74-.59,2.54,2.54,0,0,1,1.06-.21A2.62,2.62,0,0,1,75.55,6.53Zm-1.65.68a.94.94,0,0,0-.4.3.84.84,0,0,0-.14.47.78.78,0,0,0,.14.46.94.94,0,0,0,.4.3,1.34,1.34,0,0,0,.58.11,1.4,1.4,0,0,0,.6-.11,1,1,0,0,0,.41-.3A.78.78,0,0,0,75.63,8a.84.84,0,0,0-.14-.47,1,1,0,0,0-.41-.3,1.46,1.46,0,0,0-.6-.1A1.34,1.34,0,0,0,73.9,7.21ZM75,13.67H74V10.48h1Zm3.51.24h-1V6h1Z"/><path class="cls-7" d="M83.54,8H79.65V7.23h3.89Zm-1,.65a1.64,1.64,0,0,1,.62.66,2.2,2.2,0,0,1,0,1.92,1.58,1.58,0,0,1-.62.66,1.77,1.77,0,0,1-1.78,0,1.52,1.52,0,0,1-.62-.66,2.12,2.12,0,0,1,0-1.92,1.58,1.58,0,0,1,.62-.66,1.77,1.77,0,0,1,1.78,0Zm-1.35.7a1,1,0,0,0-.31.37,1.35,1.35,0,0,0-.1.55,1.27,1.27,0,0,0,.1.54.85.85,0,0,0,.31.36.82.82,0,0,0,.46.13.77.77,0,0,0,.45-.13.73.73,0,0,0,.31-.36,1.13,1.13,0,0,0,.11-.54,1.2,1.2,0,0,0-.11-.55.81.81,0,0,0-.31-.37.85.85,0,0,0-.45-.13A.91.91,0,0,0,81.15,9.37Zm.94-1.65h-1V6.2h1Zm2.7,5.83h-.92V6.14h.92ZM85.87,10H84.48V9.24h1.39Zm.63,3.88h-.93V6h.93Z"/><path class="cls-7" d="M20.87,20.61a5.1,5.1,0,0,1-.61,1.45,3,3,0,0,1-1,1l-.61-.72a3,3,0,0,0,.93-.89,4.38,4.38,0,0,0,.56-1.2,5.15,5.15,0,0,0,.18-1.37V17.47h.75v1.42A7.43,7.43,0,0,1,20.87,20.61Zm.55-.46a4.09,4.09,0,0,0,.5,1.15,2.87,2.87,0,0,0,.86.84l-.54.75a2.87,2.87,0,0,1-1-1,4.89,4.89,0,0,1-.56-1.41,7.19,7.19,0,0,1-.18-1.65V17.47h.74v1.38A5,5,0,0,0,21.42,20.15Zm1.93.16H21.93V19.5h1.42Zm.63,4h-.92V16.91H24Zm1.65.38h-.94V16.77h.94Z"/><path class="cls-7" d="M30.6,18.08H27.87v2.63h-1V17.3H30.6ZM29.55,20.4a12.7,12.7,0,0,0,1.51-.18l.11.78a13.71,13.71,0,0,1-1.57.18c-.53,0-1.22,0-2.08,0h-.64v-.77h.64C28.36,20.45,29,20.43,29.55,20.4Zm3.28,4.31h-1v-2H27.53v-.78h5.3Zm-2.39-5.09H27.55v-.76h2.89Zm2.39,1.95h-1v-4.8h1Zm1.11-2H32.56v-.82h1.38Z"/><path class="cls-7" d="M37.06,17.71a2.19,2.19,0,0,1,.6,1,4.48,4.48,0,0,1,.22,1.5,4.58,4.58,0,0,1-.22,1.51,2.19,2.19,0,0,1-.6,1,1.37,1.37,0,0,1-.92.35,1.29,1.29,0,0,1-.9-.35,2.19,2.19,0,0,1-.6-1,4.86,4.86,0,0,1-.22-1.51,4.75,4.75,0,0,1,.22-1.5,2.19,2.19,0,0,1,.6-1,1.32,1.32,0,0,1,.9-.34A1.41,1.41,0,0,1,37.06,17.71Zm-1.36.8a1.65,1.65,0,0,0-.28.65,5.16,5.16,0,0,0-.09,1,5.09,5.09,0,0,0,.09,1,1.65,1.65,0,0,0,.28.65.54.54,0,0,0,.44.22.58.58,0,0,0,.45-.22,1.64,1.64,0,0,0,.29-.65,4.41,4.41,0,0,0,.1-1,4.47,4.47,0,0,0-.1-1,1.64,1.64,0,0,0-.29-.65.58.58,0,0,0-.45-.22A.54.54,0,0,0,35.7,18.51Zm3.25,2H37.56v-.79H39Zm.61,3.78h-.92V16.91h.92Zm1.64.38h-.94V16.77h.94Z"/><path class="cls-7" d="M44.6,20.51a5,5,0,0,1-.75,1.55,3.3,3.3,0,0,1-1.19,1l-.61-.79a2.89,2.89,0,0,0,1.08-.86,4,4,0,0,0,.7-1.28,4.62,4.62,0,0,0,.24-1.47V17.41h.79v1.27A6.48,6.48,0,0,1,44.6,20.51Zm.69-.39A3.88,3.88,0,0,0,46,21.35a2.87,2.87,0,0,0,1.06.81l-.59.78a3.35,3.35,0,0,1-1.18-1,4.89,4.89,0,0,1-.74-1.48,6.17,6.17,0,0,1-.24-1.8V17.41h.78v1.27A4.62,4.62,0,0,0,45.29,20.12Zm3,0H46.15v-.79H48.3Zm.49,4.59h-1V16.77h1Z"/><path class="cls-7" d="M53.84,22.4c.53,0,1.09,0,1.68-.08a16.94,16.94,0,0,0,1.69-.17l.08.71c-.52.1-1,.17-1.6.22s-1.08.09-1.56.1l-1.67,0H52.2l-.12-.8Zm2.95-4.17H53.64v2.54h-1V17.44h4.13Zm0,3H52.66v-.77h4.16Zm-.19-1.53H53.35V19h3.28ZM55.17,22.6h-1V21h1Zm3.49,2.12h-1V16.77h1Z"/><path class="cls-7" d="M67.09,21.12H59.83v-.79h7.26ZM65.8,18H60.72v-.78H65.8Zm-4.07,5.84h-1v-2h1Zm4.7.7H60.76v-.79h5.67Zm-.23-6.64c0,.33,0,.62,0,.87s0,.54-.07.86-.09.65-.17,1l-1-.09c.07-.35.13-.68.16-1s.06-.58.07-.82,0-.52,0-.85v-.68h1v.68Z"/><path class="cls-7" d="M72.25,18.77H67.57V18h4.68ZM71,19.52a1.82,1.82,0,0,1,1,1.64,1.73,1.73,0,0,1-.26,1,1.76,1.76,0,0,1-.71.67,2.19,2.19,0,0,1-1,.24,2.21,2.21,0,0,1-1-.24,1.76,1.76,0,0,1-.71-.67,1.82,1.82,0,0,1-.26-1,1.88,1.88,0,0,1,.26-1,1.83,1.83,0,0,1,.71-.67,2.34,2.34,0,0,1,1-.23A2.31,2.31,0,0,1,71,19.52Zm-1.58.7a.93.93,0,0,0-.38.38,1.27,1.27,0,0,0,0,1.12,1,1,0,0,0,.38.37,1.13,1.13,0,0,0,.56.13,1.08,1.08,0,0,0,.54-.13,1,1,0,0,0,.38-.37,1.19,1.19,0,0,0,0-1.12.93.93,0,0,0-.38-.38,1.08,1.08,0,0,0-.54-.13A1.13,1.13,0,0,0,69.38,20.22Zm1-1.92h-1V16.88h1Zm3.41,6.41h-1V16.77h1Zm1.23-4H73.62v-.81h1.44Z"/><path class="cls-7" d="M77.48,20.61a5.1,5.1,0,0,1-.61,1.45,3,3,0,0,1-1,1l-.61-.72a3,3,0,0,0,.93-.89,4.11,4.11,0,0,0,.56-1.2,5.15,5.15,0,0,0,.18-1.37V17.47h.75v1.42A7.43,7.43,0,0,1,77.48,20.61Zm.55-.46a4.09,4.09,0,0,0,.5,1.15,2.87,2.87,0,0,0,.86.84l-.54.75a2.87,2.87,0,0,1-1-1,4.89,4.89,0,0,1-.56-1.41,7.19,7.19,0,0,1-.18-1.65V17.47h.74v1.38A5,5,0,0,0,78,20.15Zm1.93.16H78.54V19.5H80Zm.63,4h-.92V16.91h.92Zm1.65.38H81.3V16.77h.94Z"/><path class="cls-7" d="M90.43,23.75H83.17v-.81h7.26Zm-2.12-6.29a2.44,2.44,0,0,1,1.06.74,1.77,1.77,0,0,1,0,2.19,2.41,2.41,0,0,1-1.05.74,4.63,4.63,0,0,1-3.06,0,2.47,2.47,0,0,1-1.05-.74,1.81,1.81,0,0,1,0-2.19,2.44,2.44,0,0,1,1.06-.74,4,4,0,0,1,1.52-.27A4.07,4.07,0,0,1,88.31,17.46Zm-2.57.67a1.53,1.53,0,0,0-.7.46,1.1,1.1,0,0,0-.25.71A1.11,1.11,0,0,0,85,20a1.62,1.62,0,0,0,.7.46,3.08,3.08,0,0,0,1.05.17,3,3,0,0,0,1-.17,1.65,1.65,0,0,0,.71-.46,1.11,1.11,0,0,0,.25-.7,1.1,1.1,0,0,0-.25-.71,1.57,1.57,0,0,0-.71-.46,3.49,3.49,0,0,0-2.09,0Zm.08,5h-1V20.83h1Zm2.94,0h-1V20.83h1Z"/><path class="cls-7" d="M87.11,57.81a3.34,3.34,0,0,1-1,1.15,5.34,5.34,0,0,1-1.59.76l-.32-.62a4.87,4.87,0,0,0,1.32-.59,2.66,2.66,0,0,0,.84-.83,2,2,0,0,0,.28-1v-.37h.83A3.25,3.25,0,0,1,87.11,57.81Zm-.06-.87h-2.6v-.63h2.6Zm-1.14,4.7h-.78V59.9h.78Zm3.5.35H85.13v-.62h4.28Zm-.24-1.62h-.79V55.83h.79Zm.88-2.09H88.94v-.64h1.11Z"/><path class="cls-7" d="M93.45,57h-2V59h-.77V56.35h2.82Zm-1.12,1.7c.31,0,.6,0,.86-.06l.79-.12.08.62a8.27,8.27,0,0,1-1.23.16c-.42,0-1,0-1.69,0h-.51v-.63h1.7Zm-.26,3H91.3V59.9h.77Zm3.5.31H91.3v-.62h4.27Zm-.24-1.61h-.78V55.83h.78Zm.88-2.14H95.09V57.6h1.12Z"/><path class="cls-7" d="M100.26,57.15H96.53v-.62h3.73Zm-1.07.41a1.22,1.22,0,0,1,.54.43,1.08,1.08,0,0,1,0,1.25,1.34,1.34,0,0,1-.54.41,2,2,0,0,1-.79.15,2,2,0,0,1-.81-.15,1.16,1.16,0,0,1-.55-.41A1.12,1.12,0,0,1,97,58a1.2,1.2,0,0,1,.55-.43,2,2,0,0,1,.81-.15A2,2,0,0,1,99.19,57.56Zm-1,4.07h-.77V60.17h.77Zm3.51.36H97.45v-.62h4.28ZM98,58.08a.61.61,0,0,0-.28.21.51.51,0,0,0-.1.32.47.47,0,0,0,.1.32.61.61,0,0,0,.28.21,1.32,1.32,0,0,0,.42.07,1.3,1.3,0,0,0,.41-.07.61.61,0,0,0,.28-.21.49.49,0,0,0,.1-.32.51.51,0,0,0-.1-.32.61.61,0,0,0-.28-.21A1.07,1.07,0,0,0,98.4,58,1.09,1.09,0,0,0,98,58.08Zm.8-1.24H98v-1h.77Zm2.7,3.69h-.78V55.84h.78Zm.88-2.08h-1.11v-.64h1.11Z"/><path class="cls-7" d="M107.06,56.56a1.74,1.74,0,0,1,.58.78,3.36,3.36,0,0,1,0,2.34,1.74,1.74,0,0,1-.58.78,1.35,1.35,0,0,1-.85.27,1.32,1.32,0,0,1-.84-.27,1.76,1.76,0,0,1-.59-.78,3.36,3.36,0,0,1,0-2.34,1.76,1.76,0,0,1,.59-.78,1.46,1.46,0,0,1,1.69,0Zm-1.32.61a1.2,1.2,0,0,0-.31.52,3.11,3.11,0,0,0,0,1.64,1.15,1.15,0,0,0,.31.52.67.67,0,0,0,.47.19.66.66,0,0,0,.47-.19,1.15,1.15,0,0,0,.31-.52,3.11,3.11,0,0,0,0-1.64,1.2,1.2,0,0,0-.31-.52.69.69,0,0,0-.47-.18A.71.71,0,0,0,105.74,57.17Zm3.86,5h-.78v-6.3h.78Z"/><path class="cls-7" d="M116.25,59.47h-5.72v-.61h5.72Zm-1.66-3.39a1.7,1.7,0,0,1,.78.41.84.84,0,0,1,.28.64.81.81,0,0,1-.28.63,1.69,1.69,0,0,1-.78.4,5.26,5.26,0,0,1-2.41,0,1.69,1.69,0,0,1-.78-.4.81.81,0,0,1-.28-.63.84.84,0,0,1,.28-.64,1.75,1.75,0,0,1,.78-.41,4.4,4.4,0,0,1,1.21-.15A4.32,4.32,0,0,1,114.59,56.08Zm0,3.9a1.76,1.76,0,0,1,.75.38.85.85,0,0,1,.26.61.84.84,0,0,1-.26.62,1.66,1.66,0,0,1-.75.39,5,5,0,0,1-1.17.12,5,5,0,0,1-1.17-.12,1.76,1.76,0,0,1-.76-.39.84.84,0,0,1-.26-.62.85.85,0,0,1,.26-.61,1.75,1.75,0,0,1,.76-.38,4.91,4.91,0,0,1,1.17-.13A5,5,0,0,1,114.55,60Zm-1.91-.87h-.78V58h.78Zm0-2.51a1.3,1.3,0,0,0-.5.2.42.42,0,0,0-.17.33.39.39,0,0,0,.17.32,1.16,1.16,0,0,0,.5.2,3.66,3.66,0,0,0,.8.07,3.62,3.62,0,0,0,.79-.07,1.16,1.16,0,0,0,.5-.2.36.36,0,0,0,.17-.32.39.39,0,0,0-.17-.33,1.3,1.3,0,0,0-.5-.2,4.55,4.55,0,0,0-1.59,0Zm0,3.9a1.1,1.1,0,0,0-.47.18A.35.35,0,0,0,112,61a.35.35,0,0,0,.16.3,1.15,1.15,0,0,0,.47.19,5,5,0,0,0,1.54,0,1.21,1.21,0,0,0,.47-.19.34.34,0,0,0,0-.59,1.21,1.21,0,0,0-.47-.18,5,5,0,0,0-1.54,0Zm2.29-1.39h-.77V58h.77Z"/><path class="cls-7" d="M117.66,57.08h1.47v-.85h.77v2.93h-3V56.23h.76Zm3.06,2.77a1.72,1.72,0,0,1,.73.42.92.92,0,0,1,.25.64,1,1,0,0,1-.25.65,1.56,1.56,0,0,1-.73.41,3.75,3.75,0,0,1-1.12.15,3.84,3.84,0,0,1-1.14-.15,1.56,1.56,0,0,1-.73-.41.92.92,0,0,1-.26-.65.88.88,0,0,1,.26-.64,1.66,1.66,0,0,1,.73-.42,4.23,4.23,0,0,1,1.14-.14A4.13,4.13,0,0,1,120.72,59.85Zm-1.59-1.3v-.87h-1.47v.87Zm-.27,1.83a1.24,1.24,0,0,0-.46.2.41.41,0,0,0-.16.33.39.39,0,0,0,.16.32,1.1,1.1,0,0,0,.46.21,3.89,3.89,0,0,0,1.47,0,1,1,0,0,0,.45-.21.39.39,0,0,0,.16-.32.41.41,0,0,0-.16-.33,1.18,1.18,0,0,0-.45-.2,3.77,3.77,0,0,0-.73-.06A3.88,3.88,0,0,0,118.86,60.38Zm2.78-.82h-.77V55.83h.77Zm.88-1.58h-1.09v-.65h1.09Z"/><path class="cls-7" d="M123.9,57h1.4v-.85h.77v2.91h-2.95V56.16h.78Zm1.4,1.44v-.84h-1.4v.84Zm-.57,1.74h2.6v-.65h.77V62H124V59.54h.77Zm2.6,1.22v-.62h-2.6v.62Zm.19-3.47h-1.64V57.3h1.64Zm.58,1.33h-.77V55.83h.77Z"/><path class="cls-7" d="M89.86,76.9H84.27v-.38h5.59Zm-3-2.08a2.77,2.77,0,0,1-.91.73,4.43,4.43,0,0,1-1.14.4l-.18-.35a3.71,3.71,0,0,0,1-.34,2.73,2.73,0,0,0,.85-.61,1.24,1.24,0,0,0,.34-.79v-.29h.38v.29A1.47,1.47,0,0,1,86.85,74.82Zm2.47-1.06H84.81V73.4h4.51Zm-2,5.36h-.43V76.75h.43Zm.37-4.47a2.61,2.61,0,0,0,.85.61,3.71,3.71,0,0,0,1,.34l-.17.35a4.37,4.37,0,0,1-1.15-.4,2.88,2.88,0,0,1-.91-.73,1.47,1.47,0,0,1-.36-1v-.29h.39v.29A1.09,1.09,0,0,0,87.64,74.65Z"/><path class="cls-7" d="M96,76.54H90.42v-.37H96ZM95.3,75.4H91.16V73.3H95.3Zm-3.7,3.34h-.44V77.23h.44Zm3.81.24H91.16v-.37h4.25ZM91.59,75h3.27V73.66H91.59Zm1.88,2.82H93V76.39h.43Z"/><path class="cls-7" d="M100.26,74.15H96.61v-.37h3.65Zm-1.06.52a1.13,1.13,0,0,1,.51.39,1,1,0,0,1,.19.6,1,1,0,0,1-.19.59,1.13,1.13,0,0,1-.51.39,1.86,1.86,0,0,1-.77.14,2.07,2.07,0,0,1-.77-.13,1.22,1.22,0,0,1-.51-.4,1,1,0,0,1-.18-.59,1,1,0,0,1,.18-.6,1.13,1.13,0,0,1,.51-.39,2.19,2.19,0,0,1,1.54,0ZM97.88,75a.8.8,0,0,0-.37.27.66.66,0,0,0-.12.41.61.61,0,0,0,.12.4.85.85,0,0,0,.37.27,1.38,1.38,0,0,0,.55.1,1.35,1.35,0,0,0,.55-.1.8.8,0,0,0,.37-.27.62.62,0,0,0,.13-.4.67.67,0,0,0-.13-.41A.8.8,0,0,0,99,75a1.35,1.35,0,0,0-.55-.1A1.38,1.38,0,0,0,97.88,75ZM98,78.76h-.43V77.22H98Zm3.67.22h-4.1v-.37h4.1Zm-3-5h-.43V73h.43Zm2.71,3.62h-.44V73h.44Zm1-2.16h-1.1v-.37h1.1Z"/><path class="cls-7" d="M107.48,73.85h-2.29V76h-.43V73.48h2.72Zm-1.12,1.9.88-.07a8.13,8.13,0,0,0,.84-.13l0,.37c-.29.06-.58.1-.86.13s-.58,0-.9.06-.69,0-1.14,0h-.47v-.37h1.6Zm2,1.2a1.53,1.53,0,0,1,.69.39.89.89,0,0,1,.24.62.88.88,0,0,1-.24.62,1.45,1.45,0,0,1-.69.4,4.35,4.35,0,0,1-2.15,0,1.62,1.62,0,0,1-.7-.39.88.88,0,0,1-.24-.62.89.89,0,0,1,.24-.62,1.62,1.62,0,0,1,.7-.39,4.2,4.2,0,0,1,2.15,0Zm-1.91.32a1.4,1.4,0,0,0-.56.28.52.52,0,0,0-.19.41.55.55,0,0,0,.19.42,1.27,1.27,0,0,0,.56.27,2.93,2.93,0,0,0,.84.1,3,3,0,0,0,.83-.1,1.23,1.23,0,0,0,.55-.27.56.56,0,0,0,.2-.42.53.53,0,0,0-.2-.41,1.35,1.35,0,0,0-.55-.28,3.46,3.46,0,0,0-.83-.09A3.37,3.37,0,0,0,106.45,77.27Zm2.79-.58h-.44V73h.44Zm1-1.68h-1.07v-.37h1.07Z"/><path class="cls-7" d="M113.16,73.41a1.3,1.3,0,0,1,.56.47,1.23,1.23,0,0,1,.21.7,1.2,1.2,0,0,1-.21.7,1.3,1.3,0,0,1-.56.47,2,2,0,0,1-1.62,0,1.3,1.3,0,0,1-.56-.47,1.2,1.2,0,0,1-.21-.7,1.23,1.23,0,0,1,.21-.7,1.3,1.3,0,0,1,.56-.47,1.91,1.91,0,0,1,1.62,0Zm-1.4.32a1,1,0,0,0-.41.35.88.88,0,0,0-.14.5.86.86,0,0,0,.14.5,1,1,0,0,0,.41.35,1.45,1.45,0,0,0,.59.13,1.38,1.38,0,0,0,.59-.13.94.94,0,0,0,.41-.35.87.87,0,0,0,.15-.5.89.89,0,0,0-.15-.5.94.94,0,0,0-.41-.35,1.38,1.38,0,0,0-.59-.12A1.45,1.45,0,0,0,111.76,73.73Zm3.9,4.17h-3.51v1h-.42V77.56h3.5v-.72h-3.52v-.36h4ZM115.9,79h-4.17v-.36h4.17Zm-.24-2.87h-.44V73h.44Z"/><path class="cls-7" d="M119.21,74.3h2v-1h.43v2.82h-2.82V73.31h.43Zm2,1.45V74.66h-2v1.09Zm2.1,3.29h-3.83V76.9h3.83Zm-3.4-.37h3V77.26h-3Zm3.4-2.13h-.44V73h.44Zm1-1.67h-1.07v-.38h1.07Z"/><path class="cls-7" d="M126.74,73.79a1.8,1.8,0,0,1,.46.74,3.62,3.62,0,0,1,.16,1.11,3.71,3.71,0,0,1-.16,1.11,1.76,1.76,0,0,1-.46.73,1,1,0,0,1-.69.26,1,1,0,0,1-.69-.26,1.67,1.67,0,0,1-.46-.73,3.42,3.42,0,0,1-.16-1.11,3.34,3.34,0,0,1,.16-1.11,1.71,1.71,0,0,1,.46-.74,1,1,0,0,1,.69-.25A1,1,0,0,1,126.74,73.79Zm-1.17.37a1.43,1.43,0,0,0-.31.59,3.62,3.62,0,0,0,0,1.77,1.41,1.41,0,0,0,.31.6.66.66,0,0,0,.48.21.64.64,0,0,0,.47-.21,1.31,1.31,0,0,0,.31-.6,3.32,3.32,0,0,0,0-1.77,1.32,1.32,0,0,0-.31-.59.65.65,0,0,0-.47-.22A.67.67,0,0,0,125.57,74.16Zm2.83,1.64h-1.22v-.37h1.22Zm.27,3h-.42V73.14h.42Zm1.22.32h-.43V73h.43Z"/><path class="cls-7" d="M138.12,76.86h-5.59v-.37h5.59Zm-3-2.26a3,3,0,0,1-.92.75,4.27,4.27,0,0,1-1.17.4l-.19-.36a4,4,0,0,0,1.06-.34,3,3,0,0,0,.86-.63,1.21,1.21,0,0,0,.34-.82v-.37h.39v.37A1.53,1.53,0,0,1,135.12,74.6Zm.41,4.53h-.43V76.76h.43Zm.37-4.72a2.89,2.89,0,0,0,.87.64,3.9,3.9,0,0,0,1,.34l-.18.36a4,4,0,0,1-1.18-.41,3,3,0,0,1-.92-.75,1.51,1.51,0,0,1-.37-1v-.37h.38v.37A1.22,1.22,0,0,0,135.9,74.41Z"/><path class="cls-7" d="M141.48,75.33a4.27,4.27,0,0,1-.91,1.44A5.36,5.36,0,0,1,139,77.92l-.25-.34a5.18,5.18,0,0,0,1.48-1,3.81,3.81,0,0,0,.87-1.3,4.23,4.23,0,0,0,.28-1.52v-.06h.43A4.79,4.79,0,0,1,141.48,75.33Zm.09-1.3H139v-.36h2.6Zm1.92,1.84h-1.73v-.38h1.73Zm.24,3.26h-.43V73h.43Z"/><path class="cls-7" d="M148.47,74.38h-3.66V74h3.66Zm-1,.73a1.29,1.29,0,0,1,.52.49,1.5,1.5,0,0,1,.2.73,1.44,1.44,0,0,1-.2.72,1.29,1.29,0,0,1-.52.49,1.62,1.62,0,0,1-.77.18,1.58,1.58,0,0,1-.76-.18,1.32,1.32,0,0,1-.53-.49,1.46,1.46,0,0,1,0-1.44,1.28,1.28,0,0,1,.53-.5,1.58,1.58,0,0,1,.76-.18A1.62,1.62,0,0,1,147.44,75.11Zm-1.31.33a1,1,0,0,0-.39.37,1,1,0,0,0-.13.52,1,1,0,0,0,.13.52,1,1,0,0,0,.39.36,1.08,1.08,0,0,0,.54.13,1.12,1.12,0,0,0,.55-.13,1,1,0,0,0,.38-.36,1,1,0,0,0,.14-.52,1,1,0,0,0-.14-.52,1,1,0,0,0-.38-.37,1.12,1.12,0,0,0-.55-.13A1.08,1.08,0,0,0,146.13,75.44Zm.75-1.25h-.44V73.06h.44Zm2.68,4.94h-.43V73h.43Zm1.06-3.2h-1.16v-.37h1.16Z"/><path class="cls-7" d="M156.59,78.22H151v-.37h5.59Zm-1-4.21h-4v-.37h4Zm-1.93,4h-.43V75.63h.43Zm2.19-3.72c0,.33,0,.63,0,.87s0,.53-.06.84-.08.66-.15,1L155.2,77c.07-.35.12-.68.16-1s0-.59.06-.83,0-.53,0-.87v-.67h.43v.68Z"/><path class="cls-7" d="M161.47,73.75a1.62,1.62,0,0,1,.55.74,3.21,3.21,0,0,1,0,2.23,1.62,1.62,0,0,1-.55.74,1.36,1.36,0,0,1-1.6,0,1.62,1.62,0,0,1-.55-.74,3.21,3.21,0,0,1,0-2.23,1.62,1.62,0,0,1,.55-.74,1.32,1.32,0,0,1,1.6,0Zm-1.38.34a1.33,1.33,0,0,0-.4.61,2.57,2.57,0,0,0-.15.9,2.5,2.5,0,0,0,.15.9,1.31,1.31,0,0,0,.4.62.87.87,0,0,0,1.16,0,1.39,1.39,0,0,0,.4-.62,2.5,2.5,0,0,0,.14-.9,2.58,2.58,0,0,0-.14-.9,1.41,1.41,0,0,0-.4-.61.87.87,0,0,0-1.16,0Zm3.82,5h-.44V73h.44Z"/><path class="cls-7" d="M170.62,76.59H165v-.37h5.6Zm-.68,1h-3.77v1.31h-.45V77.22h4.22ZM170,79h-4.29v-.36H170Zm-.1-5.42h-3.68v1.84h-.45v-2.2h4.13Zm0,2h-4.16v-.36h4.16Zm-.2-1h-3.65v-.35h3.65Z"/><path class="cls-7" d="M172,75.61h-.45V73.27H172Zm1.46-.28a12.5,12.5,0,0,0,1.42-.21l.06.37c-.5.1-1,.17-1.45.22s-.95.06-1.46.06h-.48v-.38H172C172.47,75.39,172.94,75.37,173.41,75.33ZM176,77.86h-3.41v1h-.44V77.5h3.42v-.72H172.1v-.36H176ZM176.2,79h-4.09v-.37h4.09ZM176,76.11h-.44V73H176Zm.95-1.42h-1.07v-.38h1.07Z"/><path class="cls-7" d="M86.7,82.29a1.68,1.68,0,0,1,.54.74,3,3,0,0,1,.2,1.12,2.89,2.89,0,0,1-.2,1.11,1.77,1.77,0,0,1-.54.75,1.33,1.33,0,0,1-1.58,0,1.77,1.77,0,0,1-.54-.75,2.9,2.9,0,0,1-.19-1.11A3,3,0,0,1,84.58,83a1.68,1.68,0,0,1,.54-.74,1.33,1.33,0,0,1,1.58,0Zm-1.37.35a1.53,1.53,0,0,0-.39.61,3,3,0,0,0,0,1.8,1.53,1.53,0,0,0,.39.61.84.84,0,0,0,.58.22.86.86,0,0,0,.58-.22,1.53,1.53,0,0,0,.39-.61,3.18,3.18,0,0,0,0-1.8,1.53,1.53,0,0,0-.39-.61.86.86,0,0,0-.58-.22A.84.84,0,0,0,85.33,82.64Zm3.66,5h-.44V81.54H89Zm1.06-3.26H88.89V84h1.16Z"/><path class="cls-7" d="M92.31,83.77a2.82,2.82,0,0,1-.63.79,2.69,2.69,0,0,1-.89.5l-.22-.34a2.65,2.65,0,0,0,.81-.44A2.34,2.34,0,0,0,92,83.6a1.63,1.63,0,0,0,.21-.81v-.28h.36v.28A2.17,2.17,0,0,1,92.31,83.77Zm1.75-1.11H90.71V82.3h3.35Zm1.41,4.93h-4V85.51h4ZM92,87.22H95V85.88H92Zm.66-4.76h-.44v-1h.44Zm.21,1.09a2,2,0,0,0,.59.62,2.74,2.74,0,0,0,.82.41l-.21.34a2.72,2.72,0,0,1-.91-.47,2.19,2.19,0,0,1-.63-.73,1.9,1.9,0,0,1-.24-.93v-.28h.36v.28A1.49,1.49,0,0,0,92.82,83.55Zm2.65,1.64H95V81.55h.44Z"/><path class="cls-7" d="M101,82.57v0h-2.7V82.1h3.22v.46L99.2,87.13h-.52Z"/><path class="cls-7" d="M104,84.54a4,4,0,0,1-.66,1.1,2.81,2.81,0,0,1-.88.73l-.28-.36a2.7,2.7,0,0,0,.82-.65,3.43,3.43,0,0,0,.63-1,2.78,2.78,0,0,0,.24-1.11V82.09h.37v1.18A3.45,3.45,0,0,1,104,84.54Zm.55-.2a3.28,3.28,0,0,0,.63,1,2.61,2.61,0,0,0,.83.62l-.28.35a3,3,0,0,1-.88-.7,3.51,3.51,0,0,1-.66-1.06,3.11,3.11,0,0,1-.25-1.23V82.09h.37v1.18A2.56,2.56,0,0,0,104.53,84.34Zm2.68,3.34h-.44V81.54h.44Z"/><path class="cls-7" d="M111.82,83.85a2.74,2.74,0,0,1-.61.83,2.89,2.89,0,0,1-.88.55l-.24-.36a2.53,2.53,0,0,0,.81-.47,2.45,2.45,0,0,0,.57-.72,1.74,1.74,0,0,0,.22-.85v-.54h.36v.54A2.24,2.24,0,0,1,111.82,83.85Zm1.73-1.41h-3.3v-.37h3.3Zm-1.9,4.88h-.44V85.64h.44Zm3.64.21h-4.08v-.37h4.08Zm-3-3.92a2.32,2.32,0,0,0,.55.67,2.67,2.67,0,0,0,.79.44l-.23.36a2.61,2.61,0,0,1-.86-.52,2.71,2.71,0,0,1-.6-.79,2.2,2.2,0,0,1-.22-.94v-.54h.36v.54A1.63,1.63,0,0,0,112.33,83.61Zm2.6,0h-1.61v-.37h1.61Zm.18,2.41h-.44v-4.5h.44Z"/><path class="cls-7" d="M117.93,83.66a5.88,5.88,0,0,1-.48,1.37,4.87,4.87,0,0,1-.87,1.22l-.36-.25a4.72,4.72,0,0,0,.83-1.12,4.64,4.64,0,0,0,.47-1.27,6.07,6.07,0,0,0,.15-1.35v0h.41A6.9,6.9,0,0,1,117.93,83.66Zm-.1-1.07h-1.44v-.37h1.44Zm1.81,1.17a6.82,6.82,0,0,1-.43,1.52,4.89,4.89,0,0,1-.86,1.39l-.36-.25a4.51,4.51,0,0,0,.82-1.28,6.15,6.15,0,0,0,.42-1.43,10.16,10.16,0,0,0,.13-1.46v0h.4A9.89,9.89,0,0,1,119.64,83.76Zm-.12-1.17h-1.25v-.37h1.25ZM121,87.67h-.43V81.54H121Zm1-3.19H120.9v-.37H122Z"/><path class="cls-7" d="M124.18,84.7a3.79,3.79,0,0,1-.67,1.07,2.93,2.93,0,0,1-.86.71l-.27-.35a2.55,2.55,0,0,0,.81-.63,3.47,3.47,0,0,0,.63-1,2.51,2.51,0,0,0,.24-1.05V82.38h.37v1.11A3.24,3.24,0,0,1,124.18,84.7ZM126,82.55h-3.45v-.37H126Zm-1.28,2a3.1,3.1,0,0,0,.64.89,2.58,2.58,0,0,0,.82.58l-.25.35a2.9,2.9,0,0,1-.89-.66,3.44,3.44,0,0,1-.67-1,2.84,2.84,0,0,1-.25-1.18V82.38h.36v1.11A2.38,2.38,0,0,0,124.74,84.51Zm2.66,3.16H127V81.54h.44Z"/><path class="cls-7" d="M135.85,85.08h-5.62v-.37h5.62Zm-.74-1.14H131v-2.1h4.14Zm-3.7,3.35H131V85.77h.44Zm3.81.24H131v-.37h4.25Zm-3.82-4h3.28V82.2H131.4Zm1.89,2.82h-.44V84.94h.44Z"/><path class="cls-7" d="M140.67,82.09a1.3,1.3,0,0,1,.56.5,1.43,1.43,0,0,1,0,1.49,1.36,1.36,0,0,1-.56.5,2,2,0,0,1-.82.17,1.94,1.94,0,0,1-.82-.17,1.46,1.46,0,0,1-.57-.5,1.49,1.49,0,0,1,0-1.49,1.38,1.38,0,0,1,.57-.5,1.8,1.8,0,0,1,.82-.18A1.83,1.83,0,0,1,140.67,82.09Zm-1.42.33a1,1,0,0,0-.41.37,1,1,0,0,0-.15.55,1,1,0,0,0,.15.54,1.13,1.13,0,0,0,.41.37,1.36,1.36,0,0,0,1.2,0,1.13,1.13,0,0,0,.41-.37,1,1,0,0,0,.15-.54,1,1,0,0,0-.15-.55,1,1,0,0,0-.41-.37,1.36,1.36,0,0,0-1.2,0Zm3.9,5.16h-4.21v-.37h4.21Zm-.08-1.82H139v-.37h4.08Zm-2.74,1.63h-.43V85.47h.43Zm1.84,0h-.42V85.47h.42ZM142.9,85h-.44V81.55h.44Zm.95-1.58h-1.1v-.37h1.1Z"/><path class="cls-7" d="M146,83.66a5.88,5.88,0,0,1-.48,1.37,5.44,5.44,0,0,1-.87,1.22l-.36-.25a5,5,0,0,0,.83-1.12,5.4,5.4,0,0,0,.47-1.27,6.07,6.07,0,0,0,.15-1.35v0h.4A7.64,7.64,0,0,1,146,83.66Zm-.11-1.07h-1.44v-.37h1.44Zm1.82,1.17a6.82,6.82,0,0,1-.43,1.52,4.89,4.89,0,0,1-.86,1.39l-.36-.25a4.74,4.74,0,0,0,.82-1.28,6.15,6.15,0,0,0,.42-1.43,8.9,8.9,0,0,0,.12-1.46v0h.41A9.89,9.89,0,0,1,147.71,83.76Zm-.12-1.17h-1.25v-.37h1.25Zm1.52,5.08h-.44V81.54h.44Zm1-3.19H149v-.37h1.11Z"/><path class="cls-7" d="M152.24,84.7a3.77,3.77,0,0,1-.66,1.07,2.84,2.84,0,0,1-.87.71l-.26-.35a2.55,2.55,0,0,0,.81-.63,3.47,3.47,0,0,0,.63-1,2.51,2.51,0,0,0,.24-1.05V82.38h.37v1.11A3.06,3.06,0,0,1,152.24,84.7Zm1.84-2.15h-3.45v-.37h3.45Zm-1.27,2a3.27,3.27,0,0,0,.63.89,2.61,2.61,0,0,0,.83.58l-.25.35a2.9,2.9,0,0,1-.89-.66,3.44,3.44,0,0,1-.67-1,2.84,2.84,0,0,1-.25-1.18V82.38h.36v1.11A2.38,2.38,0,0,0,152.81,84.51Zm2.66,3.16H155V81.54h.44Z"/><path class="cls-7" d="M159,83.67h1.5V82.14h.41v4h-2.33v-4H159Zm1.5,2.07V84H159v1.7Zm1.69,1.61h-.42V81.68h.42Zm1.13-3H162V84h1.25Zm.26,3.3h-.43V81.54h.43Z"/><path class="cls-7" d="M170.06,85h-5.59v-.36h5.59Zm-3-2.1a2.8,2.8,0,0,1-.91.7A4.07,4.07,0,0,1,165,84l-.17-.36a3.38,3.38,0,0,0,1-.31,2.59,2.59,0,0,0,.85-.6,1.08,1.08,0,0,0,.34-.77v-.31h.38v.31A1.45,1.45,0,0,1,167.06,82.89Zm1.33,2.79a1.52,1.52,0,0,1,.72.36.72.72,0,0,1,.25.57.75.75,0,0,1-.25.57,1.61,1.61,0,0,1-.72.35,4.56,4.56,0,0,1-1.13.13,4.71,4.71,0,0,1-1.14-.13,1.73,1.73,0,0,1-.72-.35.75.75,0,0,1-.25-.57.72.72,0,0,1,.25-.57,1.61,1.61,0,0,1,.73-.36,5,5,0,0,1,2.26,0Zm-2,.31a1.35,1.35,0,0,0-.58.24.47.47,0,0,0-.19.38.46.46,0,0,0,.19.37,1.66,1.66,0,0,0,.58.24,5,5,0,0,0,1.78,0,1.52,1.52,0,0,0,.57-.24.48.48,0,0,0,.21-.37.5.5,0,0,0-.21-.38,1.26,1.26,0,0,0-.57-.24,3.92,3.92,0,0,0-.89-.08A3.86,3.86,0,0,0,166.37,86Zm1.11-1.16H167V83.67h.44Zm.34-2.12a2.7,2.7,0,0,0,.85.6,3.46,3.46,0,0,0,1,.31l-.18.36a4.23,4.23,0,0,1-1.15-.39,3,3,0,0,1-.91-.71,1.41,1.41,0,0,1-.35-.94v-.31h.37v.31A1.1,1.1,0,0,0,167.82,82.71Z"/><path class="cls-7" d="M172.79,84.47a17.82,17.82,0,0,0,1.88-.16l0,.32a12.43,12.43,0,0,1-1.28.16c-.45,0-.88.07-1.29.08l-1.31,0h-.09l-.07-.38C171.41,84.51,172.13,84.5,172.79,84.47Zm1.32-2.24h-2.45v1.33h-.45V81.85h2.9Zm.06,1.53h-3V83.4h3Zm-2.07,2.3h3.13v-.71h.43v2.24h-4V85.35h.44Zm3.13,1.16v-.81H172.1v.81Zm-2.33-2.57h-.44v-1h.44Zm2.76.41h-.44V81.55h.44Z"/><path class="cls-7" d="M177.63,85.94h-.43V82.15h.43Zm1.55-.33a13.85,13.85,0,0,0,1.49-.23l.06.38a14,14,0,0,1-3,.31h-.49v-.39h.49A14.72,14.72,0,0,0,179.18,85.61Zm2.62,2.06h-.43V81.54h.43Z"/><path class="cls-7" d="M186.07,82.51h-2.42v3.4h-.44V82.15h2.86Zm-.82,3.19a12.41,12.41,0,0,0,1.33-.17l.06.39a10.77,10.77,0,0,1-1.35.16c-.44,0-1,0-1.61,0h-.47v-.38h.47C184.3,85.75,184.82,85.74,185.25,85.7Zm2.41,2h-.44V81.54h.44Zm1.06-3.29h-1.17V84h1.17Z"/><path class="cls-7" d="M189.51,87.12a.47.47,0,0,1-.14-.14.28.28,0,0,1,0-.18.31.31,0,0,1,0-.19.47.47,0,0,1,.14-.14.41.41,0,0,1,.19,0,.39.39,0,0,1,.18,0,.38.38,0,0,1,.14.14.41.41,0,0,1,0,.19.38.38,0,0,1-.19.32.41.41,0,0,1-.18,0A.41.41,0,0,1,189.51,87.12Z"/><g id="레이어_1-2-2" data-name="레이어 1-2"><path id="id-D6z1nYkh9" class="cls-8" d="M144.09,13.32h0V16.2a2.46,2.46,0,0,0,1.49-.32,1.38,1.38,0,0,0,.38-1.09,1.44,1.44,0,0,0-.39-1.11A2.23,2.23,0,0,0,144.09,13.32Zm4.31,5.9v.16h-.48a2.52,2.52,0,0,1-1.91-.59h0a2.35,2.35,0,0,1-.58-1.22h0c-.05-.21-.1-.4-.15-.58h0a.69.69,0,0,0-.71-.59h-.48v2.82h.49v.16h-2.65v-.16h.5v-6h-.5v-.17h2.87c1.85,0,2.78.55,2.78,1.66h0a1.37,1.37,0,0,1-.47,1.07,1.74,1.74,0,0,1-1.2.41h0v.08c.73,0,1.24.49,1.52,1.48h0a4.08,4.08,0,0,0,.44,1.11.66.66,0,0,0,.53.33Zm6.63.16h-2.15v-.59a1.6,1.6,0,0,1-.67.51,2.21,2.21,0,0,1-1,.2h0c-1.33,0-2-.71-2-2.15v-3h-.51v-.16h2.16v3.31a2.24,2.24,0,0,0,.27,1.13.78.78,0,0,0,.7.33h0a1.16,1.16,0,0,0,1-.66h0v-4h-.5v-.16h2.15v5h.5Zm6.8-3.08v2.92h.5v.16h-2.82v-.16h.66V16.09a2,2,0,0,0-.24-1.13.81.81,0,0,0-.71-.33h0a1.17,1.17,0,0,0-1,.66v3.92h.5v.17h-2.82v-.17h.5V14.4h-.5v-.16h2.32v.58a1.62,1.62,0,0,1,.67-.49,2.19,2.19,0,0,1,1-.21h0c1.32,0,2,.72,2,2.18Zm3.37,3.18h0a2,2,0,0,1-1.56-.71,2.88,2.88,0,0,1-.67-2,3,3,0,0,1,.65-2A2.05,2.05,0,0,1,165.2,14h0a2,2,0,0,1,.86.19,2.32,2.32,0,0,1,.58.57h0V12.08h-.5v-.16h2.15v7.29h.5v.17h-2.15v-.55c-.2.43-.68.65-1.44.65Zm1.44-2.58h0V15.06a.89.89,0,0,0-.79-.6A1,1,0,0,0,165,15a3.48,3.48,0,0,0-.34,1.77,3.44,3.44,0,0,0,.35,1.76.83.83,0,0,0,.86.48h0a.75.75,0,0,0,.43-.18h0C166.53,18.65,166.64,18,166.64,16.9Zm12.17,2.31v.17H176v-.33h.5V14.4H176v-.16h2.15v1.34a2.26,2.26,0,0,1,.35-.9,1.25,1.25,0,0,1,.56-.46,1.78,1.78,0,0,1,.6-.12,1.5,1.5,0,0,1,.55.11.72.72,0,0,1,.39.43.84.84,0,0,1,0,.64.78.78,0,0,1-.41.46.7.7,0,0,1-.55,0,.74.74,0,0,1-.35-.28,1.09,1.09,0,0,1-.15-.33h0c-.08-.28-.17-.42-.3-.42h0c-.13,0-.28.25-.45.74a5.21,5.21,0,0,0-.25,1.57h0v2.15Zm-4.24-2.13H171.2c.07,1.31.58,2,1.53,2h0a2.54,2.54,0,0,0,.86-.18,1.43,1.43,0,0,0,.71-.5h0l.16.12a1.85,1.85,0,0,1-.83.68,3,3,0,0,1-1.18.27,4.72,4.72,0,0,1-1.06-.12,3.36,3.36,0,0,1-.91-.4,1.8,1.8,0,0,1-.7-.84,3.24,3.24,0,0,1-.25-1.35h0a2.5,2.5,0,0,1,.75-2,2.62,2.62,0,0,1,1.81-.65,2.41,2.41,0,0,1,1.78.71A3.21,3.21,0,0,1,174.57,17.08Zm-3.39-.29v.12H173a6.83,6.83,0,0,0-.22-1.8c-.15-.51-.38-.77-.7-.77s-.55.25-.69.75a6.45,6.45,0,0,0-.22,1.7Zm11.88-2.55v5h.49v.17h-2.82v-.17h.67V14.4h-.5v-.16Zm.07-1.51a1,1,0,0,1-1,1h0a1,1,0,0,1-.7-.29.94.94,0,0,1-.29-.69,1,1,0,0,1,1-1,.91.91,0,0,1,.69.29,1,1,0,0,1,.28.7Zm7.06,3.57v2.91h.66v.17H188v-.17h.5V16.09a2.11,2.11,0,0,0-.22-1.13.74.74,0,0,0-.66-.33h0a1.05,1.05,0,0,0-1,.66v3.92h.5v.17h-2.82v-.17h.5V14.4h-.5v-.16h2.16v.58a1.53,1.53,0,0,1,.66-.49,2.22,2.22,0,0,1,1-.21h0c1.33,0,2,.72,2,2.18Zm2.71,2.06h0c0,.21.14.34.41.36h1.92a1.8,1.8,0,0,1,1.38.43,1.13,1.13,0,0,1,.27,1,1.91,1.91,0,0,1-.76,1.15,2.77,2.77,0,0,1-1.79.53h0a4,4,0,0,1-2.68-.62h0a.69.69,0,0,1-.18-.57.86.86,0,0,1,.24-.54,1.11,1.11,0,0,1,.48-.28h0a1,1,0,0,1-.31-1.11,1.22,1.22,0,0,1,.24-.45,2.17,2.17,0,0,1,.62-.55h0a1.7,1.7,0,0,1-1.29-1.69h0a1.56,1.56,0,0,1,.83-1.4,3.64,3.64,0,0,1,1.88-.49h0a3.48,3.48,0,0,1,1,.15h0a1.3,1.3,0,0,1-.26-.83,1.06,1.06,0,0,1,.33-.8,1.15,1.15,0,0,1,.83-.31,1,1,0,0,1,.75.26.79.79,0,0,1,.25.58.85.85,0,0,1-.2.55.69.69,0,0,1-1,.05.71.71,0,0,1-.23-.47,1,1,0,0,1,.08-.38.61.61,0,0,0,.09-.18h0c0-.12-.1-.15-.22-.1a.7.7,0,0,0-.34.32,1.15,1.15,0,0,0-.14.55h0a1.15,1.15,0,0,0,.55,1h0a1.66,1.66,0,0,1,1,1.49,1.59,1.59,0,0,1-.79,1.44A3.54,3.54,0,0,1,194,18h0a3.18,3.18,0,0,1-.92-.11h0A1,1,0,0,0,192.9,18.36ZM195,16a2.6,2.6,0,0,0-.22-1.3.76.76,0,0,0-.67-.35.68.68,0,0,0-.64.35,2.89,2.89,0,0,0-.2,1.29,3,3,0,0,0,.21,1.32.7.7,0,0,0,.64.38.74.74,0,0,0,.66-.37A2.79,2.79,0,0,0,195,16Zm.19,4h-1.88a1.87,1.87,0,0,1-.9-.19h0a1.16,1.16,0,0,0,.41,1.24A3,3,0,0,0,196,21h0a.69.69,0,0,0,.33-.45c0-.15-.06-.27-.25-.38A1.91,1.91,0,0,0,195.16,20Z"/><path class="cls-8" d="M138.57,10.21l-4.09-1.39V8.53c.62-.38,1.11-.7,1.11-1.33a1.18,1.18,0,0,0-2.36,0,.2.2,0,0,0,.19.19.19.19,0,0,0,.19-.19h0a.81.81,0,0,1,.83-.78.82.82,0,0,1,.78.78c0,.4-.31.63-1,1a.33.33,0,0,0-.14.24v.36l-4,1.43c-.59.2-.93.53-.93,1a1.1,1.1,0,0,0,1.08,1.07v5.79h1.15v1.51h6.73v-7.3h.29a1,1,0,0,0,1.08-1A1.25,1.25,0,0,0,138.57,10.21Zm-8,7.55V17h5.3v.79ZM137.76,12h-1.49v-.13c0-.38.29-.8.64-.8H137a.77.77,0,0,1,.72.8Zm-1.86-.13v4.78h-5.3v-4.8a.69.69,0,0,1,.79-.79h4.85a1.08,1.08,0,0,0-.33.81Zm1.86,7.42h-6V18.12h4.52v-5.8h1.49Zm.65-7.29h-.29v-.14A1.14,1.14,0,0,0,137,10.69h-5.61a1,1,0,0,0-1.14,1.14V12a.77.77,0,0,1-.72-.72c0-.31.23-.53.68-.68l4.05-1.47h.07l4.12,1.47c.44.15.68.44.68.75A.66.66,0,0,1,138.41,12Z"/></g></g></g></svg>